<svg xmlns="http://www.w3.org/2000/svg" viewBox="0 0 493.83 1461.83"><defs><style>.cls-1{fill:#ffa600;}.cls-2{fill:#e9cdaf;}.cls-3{fill:#e7ccaf;}.cls-4{fill:#0f0d0c;}</style></defs><title>Asset 2</title><g id="Layer_2" data-name="Layer 2"><g id="Layer_1-2" data-name="Layer 1"><path class="cls-1" d="M408.69,1008.26c3.11-3.61,6.34-8,7.51-12.41a6.34,6.34,0,0,0-3.81-7.68,7.89,7.89,0,0,1-4.83-7.41c.19-4.34,3.07-8,5.39-11.71a22.16,22.16,0,0,0,2.63-5.59,6,6,0,0,0-6.37-7.59A13.2,13.2,0,0,0,399,962.3c-1.95,3.5-2.18,7.8-5.11,10.86a5.91,5.91,0,0,1-4.33,1.93c-3.43-.07-4.43-3.29-6.53-5.2a7.43,7.43,0,0,0-6.67-1.54c7.5,17.59,14.38,35.51,20.49,53.69Z"/><path class="cls-1" d="M123.83,1036.9c-7.11.25-14.24,6.66-12.92,13.64,1.26,6.66,9.28,12.36,6.46,18.53-1,2.13-3.05,3.52-4.49,5.36-3.17,4.08-2.8,10.16-.07,14.55s7.36,7.28,12.2,9.11a41.92,41.92,0,0,0,13.32,2.66c-2.9-21.28-6.23-42.47-10.39-63.47A17.15,17.15,0,0,0,123.83,1036.9Z"/><path class="cls-2" d="M424.43,1262.64a268,268,0,0,1-8.35,39.82A266.77,266.77,0,0,0,424.43,1262.64Z"/><path class="cls-2" d="M58.6,646.06l0,.22,0-.23Z"/><path class="cls-2" d="M99.05,521.84c2.72-5,5.58-9.81,10-13.31C123.58,497,147,508,154.27,525a45.64,45.64,0,0,1,1.88,5.33v0c1.59-23.93,6.66-47.79,14-70.66,8.93-27.75,21.06-54.29,34.41-80.24-14,18.82-25.48,38.93-31.57,57.08-11.51.77-23.8,0-35.6-.88-1.89,5.55,2.3,12.3-.11,17.83-2.06,4.78-7.94,6.36-13.06,7.35-4.24.84-8.48,1.65-12.73,2.5.08-.18.16-.37.23-.56-.07.19-.15.37-.22.56-7.15,17.86-14,35.86-20.41,54a18.5,18.5,0,0,1,6,3C97.8,520.78,98.42,521.31,99.05,521.84Z"/><path class="cls-2" d="M143.78,393.18l0,0A291.62,291.62,0,0,0,128,423.77a288.82,288.82,0,0,1,15.76-30.55Z"/><path class="cls-2" d="M423.85,1136.1q1.53,11.52,2.56,23.1Q425.39,1147.62,423.85,1136.1Z"/><path class="cls-2" d="M423.63,1134.47c-.44-3.2-.89-6.39-1.38-9.59l0,0C422.71,1128.09,423.19,1131.28,423.63,1134.47Z"/><path class="cls-3" d="M186.82,337.64a41.31,41.31,0,0,1,.34,8.46,81.22,81.22,0,0,1-2.54,14.73c-2,8.27-4.7,16.7-10.39,23-6.83,7.62-18.47,13.66-17.41,23.82.43,4.14,3.14,8.14,2.13,12.17-2.16,8.66-17.24,6.75-21.15,14.79a8.68,8.68,0,0,0-.39,1c11.8.89,24.09,1.65,35.6.88,6.09-18.15,17.58-38.26,31.57-57.08v0c15.66-21.06,34.49-40.49,52.36-53.75,33.09-24.54,69.76-44.1,101.85-69.9C427.18,200.8,472.5,118.2,482,31.16c.58-5.15.89-10.82-2.06-15.11-6.71-9.66-21.53-3.9-33.3-3.35C429.48,13.55,414.19.94,397,.05,369.32-1.4,350,26.58,339,52a443.49,443.49,0,0,0-25.23,77c-2.67-9.58-5.56-19.59-12.46-26.76s-19.14-10.3-26.93-4.08c-3.41,2.71-5.47,6.75-8.28,10.09-7.49,8.86-19.64,12.12-29,18.93-15.6,11.33-22.23,31.51-23.68,50.7s1.28,38.51-.06,57.71c-1.89,27.12-21.36,59-35.56,85.62C182.76,325.06,185.84,331.31,186.82,337.64Z"/><path class="cls-1" d="M428.08,1186l-.06-1.47q-.19-5.25-.51-10.48l-.09-1.67q-.36-5.6-.83-11.19l-.18-2q-1-11.58-2.56-23.1c-.08-.54-.15-1.09-.22-1.63-.44-3.19-.92-6.38-1.41-9.57-3.51,2.4-8.71,1.95-13.14,1.26a6.41,6.41,0,0,1-3.77-1.46,6.5,6.5,0,0,1-1.39-3.23q-1.32-6-2.65-12c-7.84-.58-16.35,5.57-23,1.35-3.6-2.28-5-6.92-5.09-11.19a27,27,0,0,1,16.61-24.92c1.87-.75,4-1.38,5.19-3,1.73-2.32.88-5.68-.56-8.19s-3.45-4.82-4-7.69c-.57-3.26,1-6.56,3.51-8.82a16.59,16.59,0,0,0-2.52.74,13.18,13.18,0,0,1-15.64-4.55c-6.87-9.76-14.85-18.62-25.6-23.44-15.17-6.83-37.16-1-40.95,15.14-3,12.8,5.35,28.92-4.15,38-5.39,5.17-14,4.91-20.51,8.64-8.91,5.14-11.09,16.13-8.87,26.53,12.85-8.6,28.92-13.19,44.08-10,14.89,3.09,28.35,14.48,31.68,29.32s-3,31.62,5.09,44.38c5.06,8,14.47,12,21.42,18.46,16.77,15.56,14.68,46.6-4,59.78-4.79,3.37-10.53,5.83-13.77,10.72-2.08,3.15-2.86,7-3.77,10.62-2.48,9.94-6.62,20.11-16,25.28-5.39,3-12,3.41-17.25.23-9.61-5.8-8.6-18.67-4.61-28.32,4.51-10.89,12-21.2,8.41-33.75-1.64-5.65-6.6-9.92-12.48-9.89-13.48.08-13.29,20.78-25.76,20.59a11.3,11.3,0,0,1-5.49-1.64,27,27,0,0,1-12.36-16.31c-2-7.47-.65-15.48-2.36-23-1.28-5.65-5.5-11.32-10.66-12.92a10.7,10.7,0,0,1-4.4-2.66,16.63,16.63,0,0,0-9.72,5.52c-2.49,3-3.92,7-7.3,8.91-8.38,4.74-16.39-7.46-25.74-9.81-10-2.52-19.52,8-19.84,18.3s5.58,19.67,11.58,28.07,12.57,17,13.92,27.23c2.45,18.17-11.87,38.12-2.28,53.73,7.42,12.08,26.83,15.95,28.71,30,1.12,8.41-5,15.85-7.56,23.95-4.91,15.72,5.41,33.51,20.42,40.36s33.05,4.33,47.81-3.06,26.83-19.1,38.21-31c8.43-8.87,17-18.21,28.27-23a55,55,0,0,1,7-2.37,38,38,0,0,1,3.27-13.5c5.15-11.79,14.47-19.12,20.82-16.37a8.39,8.39,0,0,1,4.34,4.93c2.38-5.1,4.58-10.3,6.54-15.62,1.55-4.18,2.91-8.42,4.17-12.68a268,268,0,0,0,8.35-39.82q.94-6.86,1.65-13.72c0-.16,0-.31,0-.47.35-3.55.65-7.1.93-10.65.06-.89.13-1.77.19-2.65.25-3.57.47-7.14.63-10.72,0-.78.07-1.56.1-2.35q.21-5,.31-10c0-.49,0-1,0-1.48q.09-5.5,0-11c0-.83,0-1.65,0-2.48Q428.27,1191.54,428.08,1186Z"/><path class="cls-1" d="M106.18,877.44c3.27-7.3,11.06-11.87,19-12.42a17.5,17.5,0,0,1,6.65-7.71c10.1-6.46,25-3.8,32.2,5.75,4.34,5.73,5.9,13.05,7.19,20.12q3.5,19,5.62,38.27c.73,6.58,1.32,13.37-.51,19.74a20.71,20.71,0,0,1-8,11.45c7.34,5.87,17.15,8.81,26.07,6.1,3.41-1,6.63-2.83,10.18-3.1,13-1,18,16.11,27,25.54a27.59,27.59,0,0,0,27.86,7.3,16.83,16.83,0,0,0,7.35-4.61c9.69-10.77-1.18-26.63.18-40.54a23.56,23.56,0,0,1,10.65-17.06,16.21,16.21,0,0,0,7.35-16.86,43.66,43.66,0,0,0-20.52-28.36,10.73,10.73,0,0,1-5.4-9.47c.41-21.73-18.49-40.9-37.38-53.47-20.81-13.83-45.18-26.74-53.68-50.19-9-24.87,3.33-52.9-2.34-78.73-4.27-19.45-18.39-35.79-21.87-55.39-3.25-18.24,3.11-36.62,8.37-54.4,1.56-5.27,3-10.71,4.13-16.2v0c2.22-11.07,2.94-22.32-.06-32.81v0a45.64,45.64,0,0,0-1.88-5.33C147,508,123.58,497,109,508.53c-4.41,3.5-7.27,8.34-10,13.31,12.68,10.78,15.06,32.1,4.47,45.12-3.32,4.11-7.76,7.56-9.51,12.53-3.8,10.8,6.7,21.38,7.56,32.79s-9.79,22.09-21.12,21.36c-2-.13-4-.58-6.11-.54C67,633.23,62,639,58.6,646.05l0,.23q-.75,5.76-1.35,11.54c-.09.88-.16,1.77-.25,2.66q-.42,4.24-.75,8.5c-.1,1.34-.2,2.68-.29,4q-.26,3.86-.44,7.73c-.06,1.22-.13,2.45-.18,3.67-.15,3.76-.26,7.52-.3,11.29C54.32,763,71.13,828.13,89.85,893.17h0a17.38,17.38,0,0,0,5-.64C103.48,890.09,103.62,883.16,106.18,877.44Zm67.87-20.51c1.19-5.49,4.68-10.37,9-10.57,5.31-.25,9.63,6.09,12.06,12.45,2.81,7.35,4.27,16.13,2,23.54s-9.36,12.25-14.93,8.51c-4.58-3.07-6.54-10.26-7.67-16.8C173.54,868.39,172.87,862.42,174.05,856.93ZM80.11,693.4c-1.79-.12-3.67,0-5.32-.68-5.41-2.38-4.15-11.91-4.54-15a21,21,0,0,1,2.65-13.35c6.51-10.89,18.27-7.62,27.77-4.12,4.69,1.73,9.6,3.61,12.84,7.42,4.39,5.16,4.69,12.55,4.77,19.32.09,7.68,0,15.88-4.21,22.28a13.7,13.7,0,0,1-1.43,1.81c-5.72,6.11-16.28,3.25-18.26-4.88C92.78,699.58,87,693.88,80.11,693.4Z"/><path class="cls-1" d="M276.89,1060c7.3,3.63,16.74-1.38,20-8.84s1.48-16.23-2.09-23.54c-3.08-6.31-8.66-12.56-15.69-12.2-5.79.3-10.52,5.26-12.21,10.79s-.92,11.48.25,17.13C268.46,1049.85,270.91,1057,276.89,1060Z"/><path class="cls-4" d="M243.76,1160.43c7.29,3.62,16.73-1.38,19.95-8.85s1.48-16.23-2.09-23.53c-3.08-6.31-8.66-12.57-15.69-12.21-5.78.3-10.51,5.27-12.2,10.79s-.93,11.48.24,17.14C235.33,1150.3,237.77,1157.45,243.76,1160.43Z"/><path class="cls-4" d="M182.19,890.86c5.57,3.74,12.62-1.11,14.93-8.51s.85-16.19-2-23.54c-2.43-6.36-6.75-12.7-12.06-12.45-4.37.2-7.86,5.08-9,10.57s-.51,11.46.47,17.13C175.65,880.6,177.61,887.79,182.19,890.86Z"/><path class="cls-1" d="M196.71,1154.44C193,1143.86,185,1137,179,1139.12s-7.81,12.41-4.06,23,11.67,17.44,17.66,15.32S200.46,1165,196.71,1154.44Z"/><path class="cls-1" d="M211.64,1271.37c-.63-9.41-5.2-16.77-10.21-16.43s-8.56,8.24-7.93,17.65,5.21,16.77,10.21,16.44S212.27,1280.79,211.64,1271.37Z"/><path class="cls-1" d="M292.22,821.57c-2,3.08-1.89,7-1.6,10.62.55,6.87,2.47,14.77,8.73,17.63,3.39,1.54,7.63,1.38,10.29,4,1.81,1.76,2.41,4.39,2.63,6.89.73,8-.63,18,6.2,22.22,4.61,2.88,10.74,1.38,16.36,1h0Q326,868,316.71,852.32c-2.15-3.62-4.34-7.21-6.52-10.81q-7.1-11.65-14.39-23.21h0A9.21,9.21,0,0,0,292.22,821.57Z"/><path class="cls-1" d="M214.18,767.93a25.05,25.05,0,0,0-9.1-13.47c-6-4.44-16.43-4.93-19.07,2.45a10.14,10.14,0,0,0,1.09,8.53c2.71,4.57,7.46,7,12.08,9.22A39.6,39.6,0,0,0,205,777,7.41,7.41,0,0,0,214.18,767.93Z"/><path class="cls-4" d="M173.72,1335.64c-3.21.84-3.95,8.6-1.66,17.35s6.74,15.16,9.94,14.33,3.95-8.6,1.66-17.35S176.92,1334.81,173.72,1335.64Z"/><path class="cls-2" d="M401,1325.83c-6.35-2.75-15.67,4.58-20.82,16.37a38,38,0,0,0-3.27,13.5,55,55,0,0,0-7,2.37c-11.26,4.81-19.84,14.15-28.27,23-11.38,11.94-23.44,23.66-38.21,31s-32.8,9.92-47.81,3.06-25.33-24.64-20.42-40.36c2.51-8.1,8.68-15.54,7.56-23.95-1.88-14.05-21.29-17.92-28.71-30-9.59-15.61,4.73-35.56,2.28-53.73-1.35-10.2-7.92-18.84-13.92-27.23s-11.88-17.76-11.58-28.07,9.82-20.82,19.84-18.3c9.35,2.35,17.36,14.55,25.74,9.81,3.38-1.91,4.81-5.94,7.3-8.91a16.63,16.63,0,0,1,9.72-5.52,11.82,11.82,0,0,1-2.1-13.64,29.41,29.41,0,0,1,6.84-8.68c7.37-6.32,17-12.53,17.27-22.23.32-11.32-13-21.86-4.62-32.25a15.57,15.57,0,0,1,3.1-2.85c.57-.41,1.15-.79,1.74-1.18-2.22-10.4,0-21.39,8.87-26.53,6.49-3.73,15.12-3.47,20.51-8.64,9.5-9.1,1.15-25.22,4.15-38,3.79-16.16,25.78-22,40.95-15.14,10.75,4.82,18.73,13.68,25.6,23.44a13.18,13.18,0,0,0,15.64,4.55A16.59,16.59,0,0,1,394,1047a11.91,11.91,0,0,1,1.37-1.09,19.25,19.25,0,0,1,8.23-2.83c.49,1.67,1,3.36,1.48,5,1.13,3.86,2.21,7.74,3.27,11.63.17.62.33,1.24.5,1.86q1.31,4.88,2.54,9.79c.2.77.39,1.55.59,2.32q1.32,5.38,2.57,10.8c.05.24.11.49.17.74q1.21,5.34,2.33,10.7c42-56.74,81-119,76.45-185.51-1.13-16.43-7.67-35.48-25.37-40.19-18.7-5-36.82,9.11-49.79,22.34q-18,18.33-34.52,37.69a225.5,225.5,0,0,0-15.49,19.81c-10.25-22.52-21.47-44.58-33.46-66.23h0c-5.62.42-11.75,1.92-16.36-1-6.83-4.25-5.47-14.22-6.2-22.22-.22-2.5-.82-5.13-2.63-6.89-2.66-2.6-6.9-2.44-10.29-4-6.26-2.86-8.18-10.76-8.73-17.63-.29-3.63-.36-7.54,1.6-10.62a9.21,9.21,0,0,1,3.58-3.27h0Q284.15,799.87,272,781.76a35.33,35.33,0,0,1-1.54,7.11,9.83,9.83,0,0,1-3.05,5c-4.56,3.41-10.92-1.39-16.59-.76-9.84,1.11-11,16.44-19.92,20.83-8.1,4-17.93-4.07-19.26-13s2.91-17.63,6.88-25.74,8-17,6.08-25.87c-.54-2.55-1.71-5.14-4-6.45-4.71-2.77-11.83,1.28-15.79-2.49-5.14-4.94,3.13-12.78,3.28-19.89.21-8.61-10.94-12.32-15.68-19.51-5.57-8.46-1.18-19.22,4.31-28.19-14.46-22.68-27-46.33-34.1-72.16a195.78,195.78,0,0,1-6.43-37.45c-1.11,5.49-2.57,10.93-4.13,16.2-5.26,17.78-11.62,36.16-8.37,54.4,3.48,19.6,17.6,35.94,21.87,55.39,5.67,25.83-6.66,53.86,2.34,78.73,8.5,23.45,32.87,36.36,53.68,50.19,18.89,12.57,37.79,31.74,37.38,53.47a10.73,10.73,0,0,0,5.4,9.47,43.66,43.66,0,0,1,20.52,28.36,16.21,16.21,0,0,1-7.35,16.86,23.56,23.56,0,0,0-10.65,17.06c-1.36,13.91,9.51,29.77-.18,40.54a16.83,16.83,0,0,1-7.35,4.61,27.59,27.59,0,0,1-27.86-7.3c-8.93-9.43-14-26.57-27-25.54-3.55.27-6.77,2.08-10.18,3.1-8.92,2.71-18.73-.23-26.07-6.1a14.19,14.19,0,0,1-5.1,2.13c-8.16,1.61-15.94-4.4-20.76-11.18a53.48,53.48,0,0,1-8-44.1c1.09-4.09,2.68-8.4,1.4-12.44-1.88-5.91-9.14-8.79-11.11-14.66a10.36,10.36,0,0,1,.42-7.37c-7.94.55-15.73,5.12-19,12.42-2.56,5.72-2.7,12.65-11.33,15.09a17.38,17.38,0,0,1-5,.64c8.05,28,16.46,56,24,84.2Q95.38,969.26,76.32,962c-18.69-7.15-43.18-13-61.28-1C-2.09,972.43-2,992.77,2.78,1008.5,21.54,1069.54,81.38,1111,144,1146c7.19,60.91,13.34,122,27.95,180.89-5,3.18-6.64,13.69-3.65,25.1,3.21,12.28,10.62,21,16.8,20q1.81,5.36,3.76,10.66c7.94,21.62,17.82,43.23,34.35,59.29s36.47,17.5,59.46,19.62c21.14,1.93,45.77-12.42,57.69-24.36,20-20,31.13-44,44.1-68.23,6.17.62,14.12-6.33,18.72-16.89,3.55-8.12,4.19-16.24,2.16-21.41A8.39,8.39,0,0,0,401,1325.83ZM383,969.89c2.1,1.91,3.1,5.13,6.53,5.2a5.91,5.91,0,0,0,4.33-1.93c2.93-3.06,3.16-7.36,5.11-10.86a13.2,13.2,0,0,1,10.22-6.43,6,6,0,0,1,6.37,7.59,22.16,22.16,0,0,1-2.63,5.59c-2.32,3.69-5.2,7.37-5.39,11.71a7.89,7.89,0,0,0,4.83,7.41,6.34,6.34,0,0,1,3.81,7.68c-1.17,4.44-4.4,8.8-7.51,12.41L396.84,1022c-6.11-18.18-13-36.1-20.49-53.69A7.43,7.43,0,0,1,383,969.89ZM205,777a39.6,39.6,0,0,1-5.77-2.35c-4.62-2.24-9.37-4.65-12.08-9.22a10.14,10.14,0,0,1-1.09-8.53c2.64-7.38,13.08-6.89,19.07-2.45a25.05,25.05,0,0,1,9.1,13.47A7.41,7.41,0,0,1,205,777Zm61.91,249.17c1.69-5.53,6.42-10.49,12.21-10.79,7-.36,12.61,5.89,15.69,12.2,3.57,7.31,5.31,16.07,2.09,23.54s-12.66,12.47-20,8.84c-6-3-8.43-10.12-9.78-16.66C265.94,1037.66,265.17,1031.7,266.86,1026.18Zm-33.13,100.45c1.69-5.52,6.42-10.49,12.2-10.79,7-.36,12.61,5.9,15.69,12.21,3.57,7.3,5.31,16.06,2.09,23.53s-12.66,12.47-19.95,8.85c-6-3-8.43-10.13-9.79-16.66C232.8,1138.11,232,1132.15,233.73,1126.63ZM125,1098.09c-4.84-1.83-9.48-4.72-12.2-9.11s-3.1-10.47.07-14.55c1.44-1.84,3.52-3.23,4.49-5.36,2.82-6.17-5.2-11.87-6.46-18.53-1.32-7,5.81-13.39,12.92-13.64a17.15,17.15,0,0,1,4.11.38c4.16,21,7.49,42.19,10.39,63.47A41.92,41.92,0,0,1,125,1098.09Zm57,269.23c-3.2.83-7.65-5.58-9.94-14.33s-1.55-16.51,1.66-17.35,7.65,5.58,9.94,14.33S185.21,1366.48,182,1367.32Zm-7-205.21c-3.75-10.58-1.93-20.88,4.06-23s13.91,4.74,17.67,15.32,1.93,20.87-4.07,23S178.74,1172.69,175,1162.11ZM203.71,1289c-5,.33-9.58-7-10.21-16.44s2.92-17.32,7.93-17.65,9.58,7,10.21,16.43S208.72,1288.69,203.71,1289Zm195.48,63.4c-3.56,8.15-9.06,13.62-12.29,12.22s-3-9.15.58-17.29,9.06-13.62,12.29-12.22S402.74,1344.28,399.19,1352.43Z"/><path class="cls-4" d="M399.77,1335.14c-3.23-1.4-8.73,4.07-12.29,12.22s-3.82,15.88-.58,17.29,8.73-4.07,12.29-12.22S403,1336.54,399.77,1335.14Z"/><path class="cls-1" d="M124.24,460.8c5.12-1,11-2.57,13.06-7.35,2.41-5.53-1.78-12.28.11-17.83a8.68,8.68,0,0,1,.39-1c3.91-8,19-6.13,21.15-14.79,1-4-1.7-8-2.13-12.17-1.06-10.16,10.58-16.2,17.41-23.82,5.69-6.33,8.35-14.76,10.39-23a81.22,81.22,0,0,0,2.54-14.73,41.31,41.31,0,0,0-.34-8.46c-1-6.33-4.06-12.58-9-16.47-2.42,4.52-4.67,8.89-6.66,13.06-9.53,19.9-18.71,37.63-27.34,58.95v0A288.82,288.82,0,0,0,128,423.77c-3.92,8.66-7.57,17.45-11.14,26.23-1.72,4.24-3.44,8.49-5.13,12.74-.07.19-.15.38-.23.56C115.76,462.45,120,461.64,124.24,460.8Z"/><path class="cls-4" d="M176.33,941.19c1.83-6.37,1.24-13.16.51-19.74q-2.13-19.23-5.62-38.27c-1.29-7.07-2.85-14.39-7.19-20.12-7.24-9.55-22.1-12.21-32.2-5.75a17.5,17.5,0,0,0-6.65,7.71,10.36,10.36,0,0,0-.42,7.37c2,5.87,9.23,8.75,11.11,14.66,1.28,4-.31,8.35-1.4,12.44a53.48,53.48,0,0,0,8,44.1c4.82,6.78,12.6,12.79,20.76,11.18a14.19,14.19,0,0,0,5.1-2.13A20.71,20.71,0,0,0,176.33,941.19Z"/><path class="cls-4" d="M270.88,1112.13c-8.35,10.39,4.94,20.93,4.62,32.25-.28,9.7-9.9,15.91-17.27,22.23a29.41,29.41,0,0,0-6.84,8.68,11.82,11.82,0,0,0,2.1,13.64,10.7,10.7,0,0,0,4.4,2.66c5.16,1.6,9.38,7.27,10.66,12.92,1.71,7.53.39,15.54,2.36,23a27,27,0,0,0,12.36,16.31,11.3,11.3,0,0,0,5.49,1.64c12.47.19,12.28-20.51,25.76-20.59,5.88,0,10.84,4.24,12.48,9.89,3.63,12.55-3.9,22.86-8.41,33.75-4,9.65-5,22.52,4.61,28.32,5.26,3.18,11.86,2.74,17.25-.23,9.37-5.17,13.51-15.34,16-25.28.91-3.66,1.69-7.47,3.77-10.62,3.24-4.89,9-7.35,13.77-10.72,18.69-13.18,20.78-44.22,4-59.78-6.95-6.44-16.36-10.44-21.42-18.46-8.05-12.76-1.8-29.67-5.09-44.38s-16.79-26.23-31.68-29.32c-15.16-3.14-31.23,1.45-44.08,10-.59.39-1.17.77-1.74,1.18A15.57,15.57,0,0,0,270.88,1112.13Z"/><path class="cls-4" d="M74.34,633.1c2.06,0,4.09.41,6.11.54,11.33.73,22-10,21.12-21.36s-11.36-22-7.56-32.79c1.75-5,6.19-8.42,9.51-12.53,10.59-13,8.21-34.34-4.47-45.12-.63-.53-1.25-1.06-1.92-1.53a18.5,18.5,0,0,0-6-3q-4.56,12.92-8.73,25.94v0c-.45,1.44-.88,2.88-1.33,4.32-.64,2.06-1.29,4.12-1.91,6.18-.53,1.74-1,3.49-1.56,5.23-.64,2.17-1.26,4.33-1.88,6.5q-.67,2.33-1.33,4.67-1.49,5.37-2.89,10.74c-.22.87-.43,1.73-.65,2.59-.77,3-1.52,6-2.24,9.06-.29,1.21-.57,2.42-.85,3.63q-1,4.51-2,9c-.18.86-.38,1.73-.56,2.59q-1.25,5.89-2.35,11.82c-.1.52-.19,1.05-.28,1.57-.64,3.47-1.24,6.93-1.8,10.41l-.42,2.68q-.87,5.49-1.6,11c0,.25-.07.49-.1.73h0C62,639,67,633.23,74.34,633.1Z"/><path class="cls-4" d="M112.64,711.05a13.7,13.7,0,0,0,1.43-1.81c4.25-6.4,4.3-14.6,4.21-22.28-.08-6.77-.38-14.16-4.77-19.32-3.24-3.81-8.15-5.69-12.84-7.42-9.5-3.5-21.26-6.77-27.77,4.12a21,21,0,0,0-2.65,13.35c.39,3.12-.87,12.65,4.54,15,1.65.72,3.53.56,5.32.68,6.86.48,12.67,6.18,14.27,12.77C96.36,714.3,106.92,717.16,112.64,711.05Z"/><path class="cls-4" d="M192.44,701c4.74,7.19,15.89,10.9,15.68,19.51-.15,7.11-8.42,15-3.28,19.89,4,3.77,11.08-.28,15.79,2.49,2.25,1.31,3.42,3.9,4,6.45,1.89,8.84-2.08,17.77-6.08,25.87S210.3,792,211.63,801s11.16,17,19.26,13c8.89-4.39,10.08-19.72,19.92-20.83,5.67-.63,12,4.17,16.59.76a9.83,9.83,0,0,0,3.05-5,35.33,35.33,0,0,0,1.54-7.11c-14.4-21.52-29.2-42.77-44.19-63.84-10.54-14.82-21.24-29.73-31.05-45.11C191.26,681.78,186.87,692.54,192.44,701Z"/><path class="cls-4" d="M414.51,1084.53q-1.25-5.41-2.57-10.8c-.2-.77-.39-1.55-.59-2.32q-1.23-4.9-2.54-9.79c-.17-.62-.33-1.24-.5-1.86-1.06-3.89-2.14-7.77-3.27-11.63-.48-1.67-1-3.36-1.48-5a19.25,19.25,0,0,0-8.23,2.83A11.91,11.91,0,0,0,394,1047c-2.49,2.26-4.08,5.56-3.51,8.82.51,2.87,2.51,5.17,4,7.69s2.29,5.87.56,8.19c-1.2,1.64-3.32,2.27-5.19,3a27,27,0,0,0-16.61,24.92c.08,4.27,1.49,8.91,5.09,11.19,6.66,4.22,15.17-1.93,23-1.35q1.34,6,2.65,12a6.5,6.5,0,0,0,1.39,3.23,6.41,6.41,0,0,0,3.77,1.46c4.43.69,9.63,1.14,13.14-1.26l0,0c-.08-.52-.18-1-.26-1.56-.13-.86-.28-1.72-.42-2.58-.49-3-1-6-1.55-9.08-.18-1-.37-2.07-.56-3.1q-.9-4.83-1.87-9.66c-.12-.59-.23-1.19-.35-1.79-.08-.38-.15-.76-.23-1.14q-1.11-5.35-2.33-10.7C414.62,1085,414.56,1084.77,414.51,1084.53Z"/></g></g></svg>