<svg xmlns="http://www.w3.org/2000/svg" viewBox="0 0 578.63 1482.87"><defs><style>.cls-1{fill:#efd0af;}.cls-2{fill:#ecceaf;}.cls-3{fill:#ff520e;}</style></defs><title>Asset 3</title><g id="Layer_2" data-name="Layer 2"><g id="Layer_1-2" data-name="Layer 1"><path class="cls-1" d="M142.57,1181.82c-1.72-39.35-1.74-78.28-.27-117,.09-2.36.21-4.71.31-7.07a136.64,136.64,0,0,0-20.92-13.1A255.06,255.06,0,0,0,31.3,1017c-9.17-1-19.71-1-26.06,5.67-3.93,4.14-5.36,10.15-5.23,15.86.36,15.51,10.72,28.75,20.58,40.72,34.52,41.9,71.53,85.57,122.1,104.84,0-.76-.08-1.52-.12-2.27Z"/><path class="cls-1" d="M574.57,1092.26c-3.34-4-8.32-6.13-13.2-7.92-44-16.07-95.06-11.3-135.31,12.62q-4.28,2.54-8.36,5.41c-.09,2.77-.17,5.55-.27,8.32-1.4,39.06-4.44,78-10.7,116.5,6.93-.84,13.52-3.6,20-6.37,52.07-22.33,106.11-46.77,141.15-91.29C576.33,1118.76,583.39,1102.76,574.57,1092.26Z"/><path class="cls-2" d="M374.18,1330a38.55,38.55,0,0,0-8.48,7.41c-8.66,10.87-6,26.44-5,40.3s-2.33,31.07-15.6,35.21c-7.94,2.48-18-.43-23.81,5.51-8,8.13,1.16,22.72-3.85,32.93-3.41,7-12.62,9.38-20.13,7.48s-13.72-7-19.64-12l-28.48-24c-5-4.22-10.07-8.52-13.67-14-7.25-10.9-9.26-26.78-21.27-32-6.59-2.85-15-1.68-20.23-6.64-4.29-4.09-4.58-10.7-4.78-16.63-.38-11-1.58-22.44-7.19-31.93a31.4,31.4,0,0,0-13.67-12.43,56.72,56.72,0,0,1,4.33,12.88c2.59,12.21,1.16,23.25-3.07,27.44a277.12,277.12,0,0,0,16,34.34c15.95,28,41.89,74,68,92.84,11.93,8.58,26.34,7.1,40.25,2.38,7.46-2.51,25.51-15.71,30.6-21.7,25.92-30.52,42.86-67.59,55.07-106.8C375.1,1348.45,373.09,1340.19,374.18,1330Z"/><path class="cls-2" d="M179.27,1235.34c1.83-11.53-8.63-20.78-17-28.88a123.68,123.68,0,0,1-19.66-24.62c0,.75.09,1.51.12,2.27q1.92,41.9,6.48,84.5a29.44,29.44,0,0,1,4.58-6.36C162.49,1253.09,177.27,1247.84,179.27,1235.34Z"/><path class="cls-2" d="M384.46,644.5c3.15,18.82,12.7,36.55,12.81,55.64.1,16.25-11.45,34.26-26.26,36.19A27.23,27.23,0,0,1,382.9,739c7.11,3.42,11.28,11.28,9.06,18.84-4.14,14.11-25.64,12.67-35.33,23.59-18.1,20.41,20.38,56.61,2.63,77.32-2.05,2.39-4.72,4.27-6.36,7-3.8,6.22-.91,14.21-1.39,21.48-.5,7.58-5.41,14.39-12,18.11A7.83,7.83,0,0,1,328,898.91c-.49-9-6-17.83-14.42-21.34-6.83-2.86-15.15-2.64-20.66-7.59-14-12.58,6.45-38.74-4.85-53.77-4.8-6.39-13.83-8.36-21.41-11.47.44,1.55.81,3.12,1.16,4.68,5.12,23.17,6.68,50.43-9.74,67.56-5.91,6.18-13.85,10.61-18,18.07-3.2,5.69-3.94,12.71-7.07,18.29,3.48-1.66,6.51-4.54,9.67-6.88,4.35-3.22,10.65-5.46,14.91-2.14,3.58,2.77,3.85,8,3.8,12.53-.08,6.58-.16,13.25-1.74,19.66-.93,3.78-2.38,7.47-2.7,11.35-.77,9.08,4.62,17.39,7.42,26,4.86,15,1.13,33.06-10.83,43.34-2.81,2.42-6,4.4-8.42,7.17-2.1,2.4-3.56,5.31-5.56,7.79a22.33,22.33,0,0,1-18.39,8.1c-7.4-.45-14.57-4.6-21.85-3.24-9,1.71-14.36,11.18-16.5,20.1s-2.42,18.51-6.94,26.48a13.29,13.29,0,0,1-2.21,2.86c6,5.2,14.06,8.29,19.89,3.55,4.27-3.47,5.09-9.69,8.47-14,6-7.66,17.63-7.31,27-4.71s19,6.74,28.39,4.18c13.4-3.67,19.53-19,22-32.7s3.63-28.84,13.49-38.61c11-10.84,28.16-10.84,43.34-13.54s32.45-13,30.93-28.34c-.79-8-6.66-14.49-10.7-21.51a51.08,51.08,0,0,1-.36-49.41c5.59-10.07,14.91-19.1,14.81-30.61,0-5.62-2.44-10.92-4.28-16.23-3-8.7-4.57-18.24-1.93-27S375,801,384.15,800.61c15.43-.61,24.38,17.49,26.31,32.8,1.45,11.42,1.82,24.12,6.78,34q-.72-26.13-2-52.27c-3.85-74.61-12.11-149.38-28.92-222.06C384,610.32,381.59,627.48,384.46,644.5Z"/><path class="cls-2" d="M190.89,282.31a61.56,61.56,0,0,0,6.62-3.26c6.75-3.94,12.81-18.64,13.86-18.45q-4.91-4.77-10-9.4a25.53,25.53,0,0,1-7.77-23.9q1-5,2.42-9.83c3.58-12.14,9.16-23.86,10.28-36.47s-3.65-27-15.22-32.14c-7-3.11-15.79-2.65-21.16-8.08-7.28-7.36,13.61-46.37-1.68-58.45C160,75.76,122.68,71.14,118.1,55.15,112.7,36.31,103.24,17.51,86.7,7S45.41-2.68,33.52,12.9c-10.26,13.46-8.15,32.32-5.23,49,7.86,44.83,18.74,90.84,46.44,127,31.59,41.2,82.71,66.35,107.77,111.53a1552.91,1552.91,0,0,1,26.41,157,1552.79,1552.79,0,0,0-26.63-158.18A14.88,14.88,0,0,1,190.89,282.31Z"/><path class="cls-2" d="M284.9,712.67c2.52-1.81,4-4.7,6.19-6.93.36-.37.75-.68,1.13-1a53,53,0,0,1-.71-5.66,11.88,11.88,0,0,0-13.67-11l-.22,0a9.37,9.37,0,0,0-7.88,8.78,93.6,93.6,0,0,1-2.93,20.66l.21-.13C272.52,714.5,279.84,716.3,284.9,712.67Z"/><path class="cls-2" d="M246.8,743.59a14.88,14.88,0,0,0,7.58-6.2,29.5,29.5,0,0,1-18.31,6.14A15.87,15.87,0,0,0,246.8,743.59Z"/><path class="cls-2" d="M217.22,486A9.51,9.51,0,0,1,220,482.2a31.86,31.86,0,0,0-3.92-.23c-1.53,0-3.05.13-4.58.23q1,10.33,1.71,20.69a11.16,11.16,0,0,0,2.38-4.22C216.88,494.58,215.64,490,217.22,486Z"/><path class="cls-2" d="M153.36,927.63l0,.25h0Z"/><path class="cls-2" d="M250.38,536.22a32.45,32.45,0,0,0,3.17-15.39,10.77,10.77,0,0,1-1.51,3.39c-2.86,4.19-8.51,5.38-12.25,8.81-5.54,5.09-5.65,13.7-9,20.42-3.19,6.36-9.49,10.54-16.44,12.06-.1,2.25-.21,4.5-.36,6.76,1.6-1.6,3.24-3.11,4.93-4.59C230.16,557.84,243.82,549.66,250.38,536.22Z"/><path class="cls-2" d="M190.21,809.66c6.94-2.09,11.79-8.14,17.41-12.72a47.68,47.68,0,0,1,38.19-9.83,35.07,35.07,0,0,1,8.11,2.49c-.17-5.41,1.5-11.13-.33-16.24-3.76-10.52-18.35-11-29.31-8.87-12.26,2.41-28.05,4.41-33-9a20.74,20.74,0,0,1-.24-13q5.72-19.46,11.42-38.91a15.31,15.31,0,0,1,5.72-8.09,87.73,87.73,0,0,0-10.85-17.58c-2.81,13.16-5.7,26.3-8.46,39.45q-10.05,48.09-18.4,95.35A45.39,45.39,0,0,1,179.2,811C182.89,810.63,186.67,810.73,190.21,809.66Z"/><path class="cls-2" d="M367.76,736.49a21.19,21.19,0,0,1-4.78-.71c-11.19-3.06-20-15-31.08-14.69,4.57,7.48,8.41,15.51,14.15,22.13C353,740.22,360.33,737.18,367.76,736.49Z"/><path class="cls-2" d="M144.47,1064.24c0-.17-.08-.33-.11-.49-2.38-12.93,6.15-27.54,0-38.85-.71,10.92-1.26,21.86-1.72,32.8-.1,2.36-.22,4.71-.31,7.07A12.74,12.74,0,0,1,144.47,1064.24Z"/><path class="cls-2" d="M415.08,1111.7c-4,1.53-8.37,2.4-11.8,5-8.45,6.36-7.13,19.16-5.41,29.61s1.66,23.73-7.78,28.53c-8.4,4.28-18.43-1.48-25.16-8.08s-13.24-14.72-22.54-16.27c-17.34-2.88-31.19,18.78-48.69,17.09-6.38-.61-12.08-4.33-18.41-5.2-10.64-1.47-20.83,5.42-27.37,13.94-9.4,12.25-13.36,29.35-7.36,43.59s23.28,23.57,37.78,18.27c7-2.56,12.65-8,19.67-10.4,13.2-4.56,29.39,4.2,32.77,17.76,13,3.54,23.13-10.71,30.07-22.24s21.39-23.6,32.06-15.42c5,3.81,6.44,10.56,7.55,16.73,1.19,6.58,2.39,13.22,3.32,19.85.4-2.27.8-4.52,1.21-6.78.62-3.48,1.17-7,1.74-10.47,6.26-38.52,9.3-77.44,10.7-116.5A24.8,24.8,0,0,1,415.08,1111.7Zm-76.58,70.94c-1.17,4.82-2.41,9.76-5.27,13.81-3.24,4.58-8.33,7.61-13.67,9.35s-11.39,2.31-16.53,0c-3.23-1.44-6-3.93-9.38-4.87-9.87-2.72-18.23,8.35-28.36,9.86-2.27.34-5,0-6.24-1.92-1.58-2.34-.18-5.47,1.23-7.92,1.6-2.8,3.65-5.9,6.84-6.3,1.79-.22,3.62.48,5.39.1,5.6-1.21,5.3-11.34,10.95-12.34,1.89-.33,3.75.59,5.59,1.16,8.53,2.64,18.66-3.6,20.14-12.4a11.47,11.47,0,0,1,.93-3.78,7.19,7.19,0,0,1,1.72-1.89c4.48-3.69,10.58-5.62,16.25-4.38s10.63,5.91,11.5,11.65C340.09,1176.07,339.29,1179.41,338.5,1182.64Z"/><path class="cls-3" d="M392.91,1207.86c-10.67-8.18-25.12,3.9-32.06,15.42s-17.08,25.78-30.07,22.24c-3.38-13.56-19.57-22.32-32.77-17.76-7,2.43-12.69,7.84-19.67,10.4-14.5,5.3-31.77-4.06-37.78-18.27s-2-31.34,7.36-43.59c6.54-8.52,16.73-15.41,27.37-13.94,6.33.87,12,4.59,18.41,5.2,17.5,1.69,31.35-20,48.69-17.09,9.3,1.55,15.79,9.68,22.54,16.27s16.76,12.36,25.16,8.08c9.44-4.8,9.52-18.1,7.78-28.53s-3-23.25,5.41-29.61c3.43-2.58,7.79-3.45,11.8-5a24.8,24.8,0,0,0,2.35-1c.1-2.77.18-5.55.27-8.32,1-32.4,1-64.88,1-97.27-.05-45.89-.13-91.79-1.42-137.65v0c-5-9.89-5.33-22.59-6.78-34-1.93-15.31-10.88-33.41-26.31-32.8-9.18.37-16.9,8.09-19.56,16.88s-1.06,18.35,1.93,27c1.84,5.31,4.24,10.61,4.28,16.23.1,11.51-9.22,20.54-14.81,30.61a51.08,51.08,0,0,0,.36,49.41c4,7,9.91,13.46,10.7,21.51,1.52,15.33-15.76,25.62-30.93,28.34s-32.39,2.7-43.34,13.54c-9.86,9.77-11.08,24.94-13.49,38.61s-8.55,29-22,32.7c-9.35,2.56-19-1.58-28.39-4.18s-21-3-27,4.71c-3.38,4.35-4.2,10.57-8.47,14-5.83,4.74-13.85,1.65-19.89-3.55-3.36,3.37-8.43,5.25-11.46,1.94-4.12-4.51.44-14.1-5.09-16.76-2.35-1.13-5.25,0-7.74-.79-2.75-.88-4.22-3.81-4.85-6.66a12.74,12.74,0,0,0-2.17.53c-1.47,38.77-1.45,77.7.27,117v0a123.68,123.68,0,0,0,19.66,24.62c8.41,8.1,18.87,17.35,17,28.88-2,12.5-16.78,17.75-25.52,26.91a29.44,29.44,0,0,0-4.58,6.36h0c.47,4.42,1,8.81,1.5,13.24a165.41,165.41,0,0,0,3,16.75,5.4,5.4,0,0,1,1.75-.74c4.33-.92,9.26,3.7,13,11.31A31.4,31.4,0,0,1,182,1321.61c5.61,9.49,6.81,20.92,7.19,31.93.2,5.93.49,12.54,4.78,16.63,5.19,5,13.64,3.79,20.23,6.64,12,5.21,14,21.09,21.27,32,3.6,5.44,8.68,9.74,13.67,14l28.48,24c5.92,5,12.12,10.14,19.64,12s16.72-.53,20.13-7.48c5-10.21-4.12-24.8,3.85-32.93,5.81-5.94,15.87-3,23.81-5.51,13.27-4.14,16.63-21.35,15.6-35.21s-3.65-29.43,5-40.3a38.55,38.55,0,0,1,8.48-7.41,60.15,60.15,0,0,1,1.53-8.43c3.58-14,11.29-24.22,17.54-23.55,3.95-17.94,7.34-35.92,10.53-53.56v0c-.93-6.63-2.13-13.27-3.32-19.85C399.35,1218.42,397.89,1211.67,392.91,1207.86ZM333.65,1359.1c-2.74,2.43-4.1,6.6-4.19,10.42-.12,5.09,1.32,10.16.93,15.24s-3.51,10.61-8.58,11.17c-2.82.3-5.55-1-8.36-1.44a14.49,14.49,0,0,0-15.87,11c-.94,4.5.36,9.35-4,13.28-8.39,7.5-21.95,1.28-22.24-10a31.57,31.57,0,0,1,.65-6.87,52.31,52.31,0,0,1,9-20.63c4.06-5.59,9.54-11.27,8.88-18.14-.51-5.36-4.67-9.56-6.78-14.51-4.26-10,1.71-23.08,12.08-26.41,1.72-.55,3.69-1,4.67-2.49a11.3,11.3,0,0,0,1-2.74c1.4-4.26,6.34-6.62,10.81-6.2s8.44,3,11.74,6.08a45.3,45.3,0,0,1,14.23,33A12.27,12.27,0,0,1,333.65,1359.1Z"/><path class="cls-3" d="M164.76,919.21c13.78-8.69,30.62-16.58,45.81-10.65,6.07,2.36,11.83,6.9,18.3,6.05a13.37,13.37,0,0,0,4.08-1.27c3.13-5.58,3.87-12.6,7.07-18.29,4.18-7.46,12.12-11.89,18-18.07,16.42-17.13,14.86-44.39,9.74-67.56-.35-1.56-.72-3.13-1.16-4.68-5.36-2.2-10-5-11.89-10.3a16,16,0,0,1-.82-4.84,35.07,35.07,0,0,0-8.11-2.49,47.68,47.68,0,0,0-38.19,9.83c-5.62,4.58-10.47,10.63-17.41,12.72-3.54,1.07-7.32,1-11,1.34a45.39,45.39,0,0,0-8.74,1.72q-1.32,7.51-2.58,15-.49,2.92-1,5.85c-.51,3.08-1,6.17-1.53,9.26-.35,2.13-.68,4.26-1,6.39-.46,2.9-.93,5.8-1.38,8.7l-1,6.68q-.63,4.17-1.25,8.32c-.35,2.37-.7,4.75-1,7.12q-.55,3.84-1.1,7.66-.56,4-1.1,7.95-.43,3.21-.86,6.4c-.43,3.16-.84,6.32-1.25,9.47-.18,1.39-.35,2.78-.53,4.17q-.75,6-1.47,11.94l0,.25A62.33,62.33,0,0,1,164.76,919.21Z"/><path class="cls-3" d="M217.31,692.86c9.93.7,12.13,11.71,10.87,20.25-1.14,7.79-3.88,16-.31,23.19a14.67,14.67,0,0,0,8.2,7.23,29.5,29.5,0,0,0,18.31-6.14c4.4-6.65,5.54-16,12.43-19.85a93.6,93.6,0,0,0,2.93-20.66,9.37,9.37,0,0,1,7.88-8.78l.22,0a11.88,11.88,0,0,1,13.67,11,53,53,0,0,0,.71,5.66c9.1-7.74,24.43-2.64,32.62,6.53a68,68,0,0,1,7.06,9.83c11.09-.31,19.89,11.63,31.08,14.69a21.19,21.19,0,0,0,4.78.71,32.14,32.14,0,0,1,3.25-.16c14.81-1.93,26.36-19.94,26.26-36.19-.11-19.09-9.66-36.82-12.81-55.64-2.87-17-.44-34.18,1.82-51.41a857.61,857.61,0,0,0-25.76-89.85C329,412.8,279.85,327.26,211.37,260.6c-1.05-.19-7.11,14.51-13.86,18.45a61.56,61.56,0,0,1-6.62,3.26,14.88,14.88,0,0,0-8.61,16.91A1552.79,1552.79,0,0,1,208.91,457.4q1.43,12.39,2.62,24.8c1.53-.1,3.05-.21,4.58-.23a31.86,31.86,0,0,1,3.92.23,13.49,13.49,0,0,1,11.26-2.62c5.47,1.2,9.93,5.21,13.33,9.69A45.84,45.84,0,0,1,254,514.64a21,21,0,0,1-.49,6.19,32.45,32.45,0,0,1-3.17,15.39c-6.56,13.44-20.22,21.62-31.49,31.46-1.69,1.48-3.33,3-4.93,4.59,0,1-.11,1.91-.17,2.88-2.37,34.67-9.16,68.77-16.47,102.77a87.73,87.73,0,0,1,10.85,17.58A13.93,13.93,0,0,1,217.31,692.86Z"/><path d="M323.31,1316.84c-3.3-3-7.27-5.66-11.74-6.08s-9.41,1.94-10.81,6.2a11.3,11.3,0,0,1-1,2.74c-1,1.51-3,1.94-4.67,2.49-10.37,3.33-16.34,16.39-12.08,26.41,2.11,5,6.27,9.15,6.78,14.51.66,6.87-4.82,12.55-8.88,18.14a52.31,52.31,0,0,0-9,20.63,31.57,31.57,0,0,0-.65,6.87c.29,11.26,13.85,17.48,22.24,10,4.39-3.93,3.09-8.78,4-13.28a14.49,14.49,0,0,1,15.87-11c2.81.44,5.54,1.74,8.36,1.44,5.07-.56,8.18-6.09,8.58-11.17s-1.05-10.15-.93-15.24c.09-3.82,1.45-8,4.19-10.42a12.27,12.27,0,0,0,3.89-9.24A45.3,45.3,0,0,0,323.31,1316.84Z"/><path d="M288,816.21c11.3,15-9.12,41.19,4.85,53.77,5.51,4.95,13.83,4.73,20.66,7.59,8.39,3.51,13.93,12.34,14.42,21.34a7.83,7.83,0,0,0,11.56,6.42c6.57-3.72,11.48-10.53,12-18.11C352,880,349.1,872,352.9,865.74c1.64-2.68,4.31-4.56,6.36-7,17.75-20.71-20.73-56.91-2.63-77.32,9.69-10.92,31.19-9.48,35.33-23.59,2.22-7.56-1.95-15.42-9.06-18.84A27.23,27.23,0,0,0,371,736.33a32.14,32.14,0,0,0-3.25.16c-7.43.69-14.75,3.73-21.71,6.73-5.74-6.62-9.58-14.65-14.15-22.13a68,68,0,0,0-7.06-9.83c-8.19-9.17-23.52-14.27-32.62-6.53-.38.33-.77.64-1.13,1-2.16,2.23-3.67,5.12-6.19,6.93-5.06,3.63-12.38,1.83-17.88,4.74l-.21.13c-6.89,3.84-8,13.2-12.43,19.85a14.88,14.88,0,0,1-7.58,6.2,15.87,15.87,0,0,1-10.73-.06,14.67,14.67,0,0,1-8.2-7.23c-3.57-7.16-.83-15.4.31-23.19,1.26-8.54-.94-19.55-10.87-20.25a13.93,13.93,0,0,0-9.14,2.64,15.31,15.31,0,0,0-5.72,8.09Q196.74,723,191,742.5a20.74,20.74,0,0,0,.24,13c5,13.39,20.75,11.39,33,9,11-2.15,25.55-1.65,29.31,8.87,1.83,5.11.16,10.83.33,16.24a16,16,0,0,0,.82,4.84c1.88,5.33,6.53,8.1,11.89,10.3C274.21,807.85,283.24,809.82,288,816.21Z"/><path d="M144.36,1063.75c0,.16.07.32.11.49.63,2.85,2.1,5.78,4.85,6.66,2.49.79,5.39-.34,7.74.79,5.53,2.66,1,12.25,5.09,16.76,3,3.31,8.1,1.43,11.46-1.94a13.29,13.29,0,0,0,2.21-2.86c4.52-8,4.8-17.56,6.94-26.48s7.49-18.39,16.5-20.1c7.28-1.36,14.45,2.79,21.85,3.24a22.33,22.33,0,0,0,18.39-8.1c2-2.48,3.46-5.39,5.56-7.79,2.43-2.77,5.61-4.75,8.42-7.17,12-10.28,15.69-28.32,10.83-43.34-2.8-8.66-8.19-17-7.42-26,.32-3.88,1.77-7.57,2.7-11.35,1.58-6.41,1.66-13.08,1.74-19.66.05-4.54-.22-9.76-3.8-12.53-4.26-3.32-10.56-1.08-14.91,2.14-3.16,2.34-6.19,5.22-9.67,6.88a13.37,13.37,0,0,1-4.08,1.27c-6.47.85-12.23-3.69-18.3-6.05-15.19-5.93-32,2-45.81,10.65a62.33,62.33,0,0,0-11.43,8.67h0c-.42,3.35-.81,6.68-1.19,10q-5,43.5-7.81,87C150.51,1036.21,142,1050.82,144.36,1063.75Z"/><path d="M328.09,1161.13c-5.67-1.24-11.77.69-16.25,4.38a7.19,7.19,0,0,0-1.72,1.89,11.47,11.47,0,0,0-.93,3.78c-1.48,8.8-11.61,15-20.14,12.4-1.84-.57-3.7-1.49-5.59-1.16-5.65,1-5.35,11.13-10.95,12.34-1.77.38-3.6-.32-5.39-.1-3.19.4-5.24,3.5-6.84,6.3-1.41,2.45-2.81,5.58-1.23,7.92,1.28,1.91,4,2.26,6.24,1.92,10.13-1.51,18.49-12.58,28.36-9.86,3.41.94,6.15,3.43,9.38,4.87,5.14,2.3,11.17,1.75,16.53,0s10.43-4.77,13.67-9.35c2.86-4,4.1-9,5.27-13.81.79-3.23,1.59-6.57,1.09-9.86C338.72,1167,333.76,1162.36,328.09,1161.13Z"/><path d="M230.76,553.45c3.38-6.72,3.49-15.33,9-20.42,3.74-3.43,9.39-4.62,12.25-8.81a10.77,10.77,0,0,0,1.51-3.39,21,21,0,0,0,.49-6.19,45.84,45.84,0,0,0-9.42-25.37c-3.4-4.48-7.86-8.49-13.33-9.69A13.49,13.49,0,0,0,220,482.2a9.51,9.51,0,0,0-2.81,3.78c-1.58,4-.34,8.6-1.6,12.69a11.16,11.16,0,0,1-2.38,4.22,545.39,545.39,0,0,1,1.08,62.62C221.27,564,227.57,559.81,230.76,553.45Z"/><path class="cls-1" d="M172.7,1322.06a56.72,56.72,0,0,0-4.33-12.88c-3.71-7.61-8.64-12.23-13-11.31a5.4,5.4,0,0,0-1.75.74c-5.15,3.19-7.09,15.08-4.27,28.39,3.12,14.72,10.86,25.55,17.3,24.19a6,6,0,0,0,2.95-1.69C173.86,1345.31,175.29,1334.27,172.7,1322.06Zm-8.27,23.6c-3.34.86-7.74-5-9.83-13.08s-1.08-15.35,2.26-16.21,7.74,5,9.83,13.08S167.77,1344.8,164.43,1345.66Z"/><path class="cls-1" d="M375.71,1321.57a60.15,60.15,0,0,0-1.53,8.43c-1.09,10.19.92,18.45,5.36,20.56a5.39,5.39,0,0,0,1,.37c6.38,1.63,14.57-8.87,18.3-23.45s1.58-27.73-4.8-29.36a6.31,6.31,0,0,0-.76-.1C387,1297.35,379.29,1307.56,375.71,1321.57Zm14.44-6.92c3.55.8,4.84,8.43,2.88,17s-6.42,14.92-10,14.11-4.84-8.44-2.88-17S386.6,1313.84,390.15,1314.65Z"/><path d="M156.86,1316.37c-3.34.86-4.35,8.12-2.26,16.21s6.49,13.94,9.83,13.08,4.35-8.12,2.26-16.21S160.2,1315.51,156.86,1316.37Z"/><path d="M383.06,1345.79c3.55.81,8-5.51,10-14.11s.67-16.23-2.88-17-8,5.5-10,14.1S379.51,1345,383.06,1345.79Z"/></g></g></svg>