<svg xmlns="http://www.w3.org/2000/svg" viewBox="0 0 667.08 1194.59"><defs><style>.cls-1{fill:#e9cdaf;}.cls-2{fill:#ef4300;}.cls-3{fill:#090907;}</style></defs><title>Asset 1</title><g id="Layer_2" data-name="Layer 2"><g id="Layer_1-2" data-name="Layer 1"><path class="cls-1" d="M409.32,443.09a398.18,398.18,0,0,1,3,136.84A397.93,397.93,0,0,0,409.32,443.09Z"/><path class="cls-1" d="M658.6,979c-6.31-5.7-14.64-8.6-22.91-10.59-25-6-51.57-4.48-76,3.57a453.07,453.07,0,0,0,38.51-71.75c26.35-61.73,31.19-131.81,31.75-198.93C631.6,508.45,549.68,319.47,389.39,216l-1,1.12c-1.23,1.39-2.53,2.74-3.68,4.18a17.72,17.72,0,0,0-2.75,4.43c-3.76,9.18,3.65,19.85,3.92,29.34a13.71,13.71,0,0,1-1.64,7.26,18.11,18.11,0,0,0-13.81,5.92,21,21,0,0,0-3.3,4.46,17.78,17.78,0,0,0-1.83,13.54c1.71,5.91,6.21,10.63,8.45,16.35a23.48,23.48,0,0,1-5.59,24.92,408.58,408.58,0,0,1,32.63,80.19,74.31,74.31,0,0,0,3.2-26.9c-.82-10.64-4.5-21-4.43-31.61s5.55-22.56,15.93-25c13.72-3.21,24.63,11,37.33,17.17,8,3.87,17.21,4.52,25.45,7.84,15.9,6.44,26.24,22,32.87,37.86s10.67,32.81,19.19,47.7c11.67,20.44,30.91,35.52,43.9,55.15a108.46,108.46,0,0,1,15.13,82.59c-5,22.25-17.17,44.63-10.86,66.54,4.29,14.93,16.9,27.81,15.71,43.27-1.33,17.2-19.67,32.43-13.61,48.58,1.26,3.35,3.49,6.25,4.95,9.52,5.19,11.39-1.57,26.2-12.86,30.94a6.23,6.23,0,0,1-7.43-2.26l-.8-1.13a9.32,9.32,0,0,0-12.29-2.64,28.3,28.3,0,0,1-7.84,3.37c-5.57,1.27-12.81-1.83-12.89-7.53-.05-4.13,3.57-7.29,5.08-11.13,4.23-10.85-8.95-22.55-5.4-33.63,2.77-8.54,13.56-11.21,19.47-18a18.48,18.48,0,0,0-21.37-29.06c-7.06,3.09-11.9,10.42-19.35,12.41-14.13,3.72-26.84-13.66-41.25-11.34-13.58,2.19-18.62,19.67-30.42,26.74-14.88,8.95-35-2.61-42.42-18.29a66.78,66.78,0,0,1-5.35-18.45h0c-10.54,27.45-23.61,54-37.56,79.94C341.27,762,329,783.25,315,803.35c2-13.83,2.28-27.93-1.28-41.38a76.2,76.2,0,0,0-31-43.4c-3.82-2.56-8-4.82-12.61-5.21-7.45-.63-14.61,3.91-19,10s-6.38,13.48-8,20.78c-8,37.11-6.45,75.52-4.87,113.44q.57,13.61,1.13,27.21c-10.78,9.2-21.86,18.11-33.08,26.89h0a26.93,26.93,0,0,1,1,3c2,6.88,1,15.15-4.47,19.86-3.25,2.81-7.79,4.19-10.19,7.75-2.86,4.22-1.66,9.83-1.74,14.93a28.55,28.55,0,0,1-14.47,24.12,26.22,26.22,0,0,1-23.12,1.23,22.85,22.85,0,0,1-13.32-18.63,6.26,6.26,0,0,1,0-.75q-12.19,9.81-24,20c-4.39-2.51-13.77.8-22.22,8.14-9.34,8.12-14,18.07-10.35,22.23a2.21,2.21,0,0,0,.32.29,340.71,340.71,0,0,0-32,38.53c-13.51,19-24.94,40.37-27.34,63.58s5.79,48.57,25,61.89c13.34,9.26,30.16,11.77,46.34,13.33a462.36,462.36,0,0,0,108.47-2.26c1.47,5.22,12.12,7.21,24,4.43,10.4-2.43,18.33-7.71,19.49-12.56q14.25-3.36,28.33-7.55-14.07,4.18-28.32,7.54a4.9,4.9,0,0,0,0-2.25A5.86,5.86,0,0,0,245,1175a49.35,49.35,0,0,1,13.26-17.7c9.44-8.2,20.92-13.63,31.53-20.29,12.65-7.94,25.63-18.13,40.52-16.94,6.86.54,13.74,3.53,20.41,1.87,4.31-1.09,7.87-4,11.66-6.3,9.44-5.77,20.52-8.14,31.35-10.39,7.94-1.65,18.69-1.72,21.85,5.2a489,489,0,0,0,55.93-40.18c29.34.3,58.69-.66,87.42-6.29,36.83-7.21,73-22.72,99.1-49.66,3.51-3.61,6.91-7.58,8.35-12.4C668.78,993.75,664.9,984.7,658.6,979ZM540.46,430.08c-4.7,1.22-10.34-4.86-12.6-13.59s-.3-16.78,4.39-18,10.33,4.86,12.6,13.59S545.15,428.86,540.46,430.08ZM102.05,1003.94c-5.56,4.84-11.82,6.75-14,4.27s.61-8.4,6.17-13.24,11.81-6.75,14-4.27S107.61,999.11,102.05,1003.94Zm389.39-295c4-1,8.18,1.63,9.31,6s-1.21,8.71-5.22,9.75-8.18-1.63-9.3-6S487.43,710,491.44,708.92ZM466.3,680.34c8.5-2.21,16.95,2,18.88,9.42s-3.41,15.21-11.9,17.42-16.95-2-18.88-9.43S457.81,682.55,466.3,680.34Zm-68.26,93c2.51-5.94,5.53-12,10.73-15.81s13.16-4.61,17.8-.12c2.78,2.69,3.85,6.63,4.82,10.38,3.58,13.89,6.77,30-1.84,41.47-5.43,7.23-15.11,11.82-16.93,20.68s5.62,18.14,3.34,27c-2,7.91-10.63,11.92-18.28,14.75-2.94,1.09-6.32,2.13-9.06.61-3-1.66-3.75-5.55-4.09-8.94A184.29,184.29,0,0,1,398,773.37ZM173,1006.12c3.56-.92,6.81-.32,7.24,1.35s-2.1,3.78-5.67,4.7-6.8.33-7.24-1.35S169.48,1007.05,173,1006.12Zm54.25,183.31c-7.2,1.55-13.6.2-14.29-3s4.59-7.07,11.8-8.61,13.6-.2,14.29,3S234.5,1187.89,227.29,1189.43ZM485,1018.29c-5.9,1.53-11.76-1.33-13.08-6.39s2.41-10.42,8.32-11.95,11.76,1.32,13.08,6.39S491,1016.75,485,1018.29Zm58.46-86.95c-11.47,22.49-26.67,46.1-51,53-11.58,3.29-25.39,2.95-33.43,11.91-6.74,7.52-6.68,18.72-10,28.27-7.62,22.13-32.06,33.07-54.39,40.07-6.68,2.1-13.85,4.37-18.09,9.94-3.49,4.58-4.41,10.7-7.76,15.38-11.8,16.48-40.5,3.32-56.91,15.23-7.49,5.42-11,15.27-18.91,20.07s-17.85,3.31-26.92,4.87c-12.43,2.14-23,10-34.36,15.4s-25.8,8.21-35.94.72c-3.72-2.75-6.56-6.71-10.69-8.78-6.89-3.47-15.84-1-22.37-5.09-13.81-8.7-3.75-36.63-18.91-42.69-3.35-1.33-7.09-1-10.65-1.58-15.76-2.4-24.41-22.34-18.83-37.28s21.28-24.16,37-26.62c6.27-1,12.89-1,18.73,1.46,5.4,2.31,9.72,6.61,15,9.15,11.25,5.39,26.23,1,32.84-9.55,12.81-20.51-4.64-54.57,15.28-68.3,7.73-5.33,18.1-4.6,26.83-8.09,11.65-4.67,18.86-16.07,26.92-25.71,6.44-7.71,15.29-15,24.82-16.1a7.72,7.72,0,0,0,7-7.73c-.22-12.85.27-25.79,4.58-37.83a52,52,0,0,1,9.11-15.86c10.29-12.12,29.86.31,23.44,14.86l-.12.28c-5.08,11.34-12.91,21.92-11.23,35.17.77,6.09,4.34,11.65,10,14,8.84,3.62,16-2.51,23.18-6.72,5.92-3.47,14.35-5.44,19-.39,3.52,3.81,3.06,9.74,4.91,14.59,3.67,9.6,16.73,13.14,26,8.78s14.85-14.46,16.52-24.61c2.29-14-1.57-28.48,1.26-42.35s17.7-27.3,30.15-20.57c3.85,2.08,7.46,6,12.07,3.38a8.26,8.26,0,0,0,3.42-3.89c5.74-12.89,6.48-28.83,19.05-37.43,6.12-4.19,14.47-4,19.84,1.14,6.16,5.86,2.17,12.57,3.27,18.9,1.17,6.71,7.84,11.92,7.57,18.72s-7.14,11.24-9.6,17.52c-5.9,15,14.43,27,18.93,42.56C553.45,910.2,548.56,921.43,543.5,931.34Zm5.79-62.93c-2.67.69-5.63-1.78-6.6-5.52s.41-7.34,3.08-8,5.63,1.78,6.6,5.52S552,867.71,549.29,868.41Zm13.14-85.21c2.67-.69,5.7,2.06,6.76,6.15s-.24,8-2.92,8.66-5.7-2.06-6.76-6.15S559.75,783.9,562.43,783.2Z"/><path class="cls-1" d="M331.26,196.07c2.38-2.25,5-4.32,7.31-6.63a29.94,29.94,0,0,0,3.72-4.46,31.63,31.63,0,0,0,4.38-11.73C299.67,120.59,238.84,72,179.75,36.35c-16.73-10.11-33.33-19.16-49.43-27C112,.51,86.86-6.32,74,9.42c-4,5-5.91,11.4-6.85,17.77-4.43,29.72,9.31,60,30.21,81.6A152.21,152.21,0,0,0,109.55,120c-16.75-2.34-47.8-5.26-64.07-.65C31,123.47,5.57,147.61.35,189.21-1.38,203,3.24,219.66,16.74,223c9.68,2.41,117.5-11.07,139.3-8.49,62.22,7.34,103.43,21.23,152.67,38.36.11-2.49.29-5,.55-7.43C311.22,226.64,317.66,208.85,331.26,196.07Z"/><path class="cls-2" d="M438.21,697.21c11.8-7.07,16.84-24.55,30.42-26.74,14.41-2.32,27.12,15.06,41.25,11.34,7.45-2,12.29-9.32,19.35-12.41a18.48,18.48,0,0,1,21.37,29.06c-5.91,6.77-16.7,9.44-19.47,18-3.55,11.08,9.63,22.78,5.4,33.63-1.51,3.84-5.13,7-5.08,11.13.08,5.7,7.32,8.8,12.89,7.53a28.3,28.3,0,0,0,7.84-3.37A9.32,9.32,0,0,1,564.47,768l.8,1.13a6.23,6.23,0,0,0,7.43,2.26c11.29-4.74,18-19.55,12.86-30.94-1.46-3.27-3.69-6.17-4.95-9.52-6.06-16.15,12.28-31.38,13.61-48.58,1.19-15.46-11.42-28.34-15.71-43.27-6.31-21.91,5.83-44.29,10.86-66.54A108.46,108.46,0,0,0,574.24,490c-13-19.63-32.23-34.71-43.9-55.15-8.52-14.89-12.55-31.88-19.19-47.7s-17-31.42-32.87-37.86c-8.24-3.32-17.45-4-25.45-7.84-12.7-6.12-23.61-20.38-37.33-17.17-10.38,2.42-15.84,14.33-15.93,25s3.61,21,4.43,31.61a74.31,74.31,0,0,1-3.2,26.9h0q5,17.47,8.52,35.36a397.93,397.93,0,0,1,3,136.84,368.87,368.87,0,0,1-10.92,48.58q-4.83,16.18-11,32h0a66.78,66.78,0,0,0,5.35,18.45C403.24,694.6,423.33,706.16,438.21,697.21Z"/><path class="cls-2" d="M531.43,857c2.46-6.28,9.33-10.77,9.6-17.52s-6.4-12-7.57-18.72c-1.1-6.33,2.89-13-3.27-18.9-5.37-5.1-13.72-5.33-19.84-1.14-12.57,8.6-13.31,24.54-19.05,37.43a8.26,8.26,0,0,1-3.42,3.89c-4.61,2.58-8.22-1.3-12.07-3.38-12.45-6.73-27.31,6.71-30.15,20.57s1,28.38-1.26,42.35c-1.67,10.15-7.2,20.26-16.52,24.61s-22.37.82-26-8.78c-1.85-4.85-1.39-10.78-4.91-14.59-4.66-5-13.09-3.08-19,.39-7.18,4.21-14.34,10.34-23.18,6.72-5.68-2.33-9.25-7.89-10-14-1.68-13.25,6.15-23.83,11.23-35.17l.12-.28c6.42-14.55-13.15-27-23.44-14.86a52,52,0,0,0-9.11,15.86c-4.31,12-4.8,25-4.58,37.83a7.72,7.72,0,0,1-7,7.73c-9.53,1.08-18.38,8.39-24.82,16.1-8.06,9.64-15.27,21-26.92,25.71-8.73,3.49-19.1,2.76-26.83,8.09-19.92,13.73-2.47,47.79-15.28,68.3-6.61,10.59-21.59,14.94-32.84,9.55-5.3-2.54-9.62-6.84-15-9.15-5.84-2.49-12.46-2.43-18.73-1.46-15.76,2.46-31.47,11.68-37,26.62s3.07,34.88,18.83,37.28c3.56.55,7.3.25,10.65,1.58,15.16,6.06,5.1,34,18.91,42.69,6.53,4.12,15.48,1.62,22.37,5.09,4.13,2.07,7,6,10.69,8.78,10.14,7.49,24.57,4.72,35.94-.72s21.93-13.26,34.36-15.4c9.07-1.56,19.05-.1,26.92-4.87s11.42-14.65,18.91-20.07c16.41-11.91,45.11,1.25,56.91-15.23,3.35-4.68,4.27-10.8,7.76-15.38,4.24-5.57,11.41-7.84,18.09-9.94,22.33-7,46.77-17.94,54.39-40.07,3.28-9.55,3.22-20.75,10-28.27,8-9,21.85-8.62,33.43-11.91,24.29-6.89,39.49-30.5,51-53,5.06-9.91,10-21.14,6.86-31.83C545.86,884,525.53,872,531.43,857Z"/><path class="cls-2" d="M388.62,872.38c2.74,1.52,6.12.48,9.06-.61,7.65-2.83,16.25-6.84,18.28-14.75,2.28-8.91-5.2-18-3.34-27s11.5-13.45,16.93-20.68c8.61-11.47,5.42-27.58,1.84-41.47-1-3.75-2-7.69-4.82-10.38-4.64-4.49-12.6-3.7-17.8.12s-8.22,9.87-10.73,15.81a184.29,184.29,0,0,0-13.51,90.07C384.87,866.83,385.64,870.72,388.62,872.38Z"/><path class="cls-2" d="M393.7,1105.23c-10.83,2.25-21.91,4.62-31.35,10.39-3.79,2.32-7.35,5.21-11.66,6.3-6.67,1.66-13.55-1.33-20.41-1.87-14.89-1.19-27.87,9-40.52,16.94-10.61,6.66-22.09,12.09-31.53,20.29A49.35,49.35,0,0,0,245,1175a5.86,5.86,0,0,1,2.89,3.54,4.9,4.9,0,0,1,0,2.25q14.25-3.35,28.32-7.54c39.67-11.8,78.34-28.44,116.18-49.23q5.71-3.15,11.32-6.41l.66-.38q5.68-3.33,11.25-6.78h0C412.39,1103.51,401.64,1103.58,393.7,1105.23Z"/><path class="cls-2" d="M153.43,982.53a26.22,26.22,0,0,0,23.12-1.23A28.55,28.55,0,0,0,191,957.18c.08-5.1-1.12-10.71,1.74-14.93,2.4-3.56,6.94-4.94,10.19-7.75,5.42-4.71,6.49-13,4.47-19.86a26.93,26.93,0,0,0-1-3h0c-22,17.24-44.58,34-66.28,51.49h0a6.26,6.26,0,0,0,0,.75A22.85,22.85,0,0,0,153.43,982.53Z"/><path class="cls-3" d="M94.25,995c-5.56,4.84-8.32,10.76-6.17,13.24s8.41.57,14-4.27,8.32-10.76,6.17-13.24S99.81,990.13,94.25,995Z"/><path class="cls-3" d="M224.8,1177.81c-7.21,1.54-12.49,5.4-11.8,8.61s7.09,4.56,14.29,3,12.49-5.4,11.8-8.61S232,1176.26,224.8,1177.81Z"/><path class="cls-2" d="M473.28,707.18c8.49-2.21,13.82-10,11.9-17.42s-10.38-11.63-18.88-9.42-13.82,10-11.9,17.41S464.78,709.38,473.28,707.18Z"/><path class="cls-2" d="M495.53,724.65c4-1,6.35-5.41,5.22-9.75s-5.3-7-9.31-6-6.34,5.41-5.21,9.75S491.52,725.69,495.53,724.65Z"/><path class="cls-2" d="M566.27,798c2.68-.7,4-4.57,2.92-8.66s-4.09-6.84-6.76-6.15-4,4.58-2.92,8.66S563.6,798.7,566.27,798Z"/><path class="cls-2" d="M545.77,854.85c-2.67.7-4,4.3-3.08,8s3.93,6.21,6.6,5.52,4.06-4.29,3.08-8S548.45,854.16,545.77,854.85Z"/><ellipse class="cls-2" cx="482.66" cy="1009.12" rx="11.05" ry="9.47" transform="translate(-238.24 153.79) rotate(-14.56)"/><path class="cls-2" d="M174.61,1012.17c3.57-.92,6.1-3,5.67-4.7s-3.68-2.27-7.24-1.35-6.1,3-5.67,4.7S171.05,1013.1,174.61,1012.17Z"/><path class="cls-2" d="M532.25,398.49c-4.69,1.22-6.66,9.28-4.39,18s7.9,14.81,12.6,13.59,6.65-9.28,4.39-18S536.94,397.27,532.25,398.49Z"/><path class="cls-2" d="M373.76,302.61c-2.24-5.72-6.74-10.44-8.45-16.35a17.78,17.78,0,0,1,1.83-13.54,21,21,0,0,1,3.3-4.46,18.11,18.11,0,0,1,13.81-5.92,13.71,13.71,0,0,0,1.64-7.26c-.27-9.49-7.68-20.16-3.92-29.34a17.72,17.72,0,0,1,2.75-4.43c1.15-1.44,2.45-2.79,3.68-4.18l1-1.12c-3.52-2.29-7.09-4.52-10.68-6.71-1.54-.93-3.08-1.87-4.66-2.8-8.44-11.2-17.61-22.32-27.38-33.25A31.63,31.63,0,0,1,342.29,185a29.94,29.94,0,0,1-3.72,4.46c-2.33,2.31-4.93,4.38-7.31,6.63-13.6,12.78-20,30.57-22,49.38-.26,2.45-.44,4.94-.55,7.43l59.46,74.65A23.48,23.48,0,0,0,373.76,302.61Z"/></g></g></svg>