<svg xmlns="http://www.w3.org/2000/svg" viewBox="0 0 495.02 1389.28"><defs><style>.cls-1{fill:#f2d2af;}.cls-2{fill:#ff381e;}.cls-3{fill:#0d0b0b;}.cls-4{fill:#030303;}.cls-5{fill:#010304;}.cls-6{fill:#020305;}.cls-7{fill:#020406;}</style></defs><title>Asset 4</title><g id="Layer_2" data-name="Layer 2"><g id="Layer_1-2" data-name="Layer 1"><path class="cls-1" d="M106,1000.51a298.64,298.64,0,0,0-70.49-3.84c-11.13.72-23.29,2.6-30.25,10.45-6.59,7.42-6.57,18.53-2.38,27.54s11.87,16.29,19.83,22.87a261.5,261.5,0,0,0,93.15,49.06,72,72,0,0,0,16.41,3c-4.24-35.17-8.14-70.4-11.35-105.67A127.1,127.1,0,0,0,106,1000.51Z"/><path class="cls-1" d="M487.88,952.21c-8.67-9.26-22.85-10.43-35.51-9.58a172.81,172.81,0,0,0-66.11,18.27c5.73,50.25,9.64,88.84,9.87,127.93,10.38-6.45,19.41-16.81,28.15-25.72,21.48-21.88,48.85-38.93,63.69-65.76C495.77,983.25,498.89,964,487.88,952.21Z"/><path class="cls-1" d="M198.06,209.47c3.7,7.41,4.79,16.18,9.9,22.73,5,6.33,12.95,9.54,18.93,15a35.4,35.4,0,0,1,3.24,3.37c-.56-20.25,2.38-40.76,6.84-60.59,7-31.26,17.73-61.62,24.39-93,1.72-8.09,29-60.29,17.72-73.42-22.64-26.37-73.48,55-77.67,75.72-1.35-13.29-.75-26.75-2.75-40s-7-26.63-17.32-35.14S151.77-6.81,141.74,2c-10.38,9.13-7.58,45.71-5.36,59.35,8.1,49.78,34.89,95.72,38,146.06.13,2,.22,4.06.35,6.09,1.12-4.61,2.24-9.22,3.41-13.81C185.34,195.63,194.36,202.06,198.06,209.47Z"/><path class="cls-2" d="M386.24,960.72c-7.39-64.79-19-141.24-31.72-205.2C341.56,690.55,321,628.66,301,567a21.66,21.66,0,0,1-4-.67A34.52,34.52,0,0,1,282.2,558c-1.49-1.46-2.9-3.45-2.34-5.43a5.33,5.33,0,0,1,2-2.58,18.14,18.14,0,0,1,12.41-3.65C268.54,466.15,245.22,386,242.38,299.8c-.59-17.24-1.34-36.5-12.25-49.28a35.4,35.4,0,0,0-3.24-3.37c-6-5.41-14-8.62-18.93-15-5.11-6.55-6.2-15.32-9.9-22.73s-12.72-13.84-19.94-9.76c-1.17,4.59-2.29,9.2-3.41,13.81-23,94.5-35.54,191.06-44,288.17A19.24,19.24,0,0,1,146,526.4c-1.07,3.37-3.1,6.59-2.77,10.13.62,6.43,8.4,9.72,11,15.63,3.36,7.7-3,15.9-8.89,21.9-4.67,4.72-9.29,9.45-14,14.22a7,7,0,0,1-2.89,2.1,4.51,4.51,0,0,1-4.49-1.14c-2.17,32-4.09,64.07-6,96-2.48,41.23-5,82.46-5.59,123.78-1,65.08,2.59,130.06,8.5,194.88,3.21,35.27,7.11,70.5,11.35,105.67q1.69,14,3.43,28c3.47,27.72,7.24,56,19.53,81.09,2.27,4.63,4.43,9,6.52,13.21a10.66,10.66,0,0,1,3.72-5.68c5.73-3.86,14.07,4.22,18.62,18s3.59,28.19-2.14,32.06a6,6,0,0,1-.75.4c7.41,21.79,12,45.25,20.35,66.51,10.74,27.08,23.85,34.4,45.09,43.08,16.15,6.66,73.57,1.75,93.92-13.93,21.41-16.54,24.86-55.16,25.43-62.88.83-12,4.24-27,7.73-41.45-6-2.07-8.57-15.28-5.73-30.25,2.93-15.47,10.52-26.92,16.95-25.58l.17.06c8.08-48.61,11.21-86.31,11-123.52-.23-39.09-4.14-77.68-9.87-127.93ZM310.49,732.9c7.13,1.92,14,5.76,18.1,11.92s4.73,14.86.31,20.78a8.5,8.5,0,0,1-10.19,3.55,15.33,15.33,0,0,1-10.17-10.54c-.47-1.79-.64-3.73-1.71-5.23-2.85-4-9.48-2.17-13.56-4.91-4.62-3.11-3.39-10.94,1.15-14.15S305.12,731.45,310.49,732.9ZM268.18,579.47c1-6.19,8.34-10.18,16.46-8.91s13.92,7.33,12.95,13.52-8.34,10.19-16.46,8.92S267.21,585.67,268.18,579.47Zm-16.91-86c5.61.88,9.64,4.81,9,8.78s-5.67,6.48-11.27,5.61-9.65-4.82-9-8.79S245.67,492.6,251.27,493.48Zm-5-79.65c-.93,5.92-5.1,10.19-9.32,9.53s-6.89-6-6-11.93,5.1-10.18,9.32-9.52S247.16,407.91,246.23,413.83Zm-15.32-26.6c.33-2.09,3.14-3.39,6.29-2.9s5.42,2.59,5.09,4.69-3.14,3.4-6.28,2.9S230.58,389.33,230.91,387.23Zm-10-32.25a4.14,4.14,0,0,1,4.78-1.57c5.4,1.59,10.59,4.22,13.91,8.69s4.1,11.12,1.23,15.68a4.18,4.18,0,0,1-4.39,2c-2.25-.54-4.35-2.12-6.21-3.63-3.69-3-7.51-6.15-9.51-10.46C219.19,362.32,219.1,358,220.93,355ZM150.5,763.77c-6.28-1-14.46-4.53-13-10.73a11.68,11.68,0,0,1,3-4.85c6.69-7.61,16.1-16,25.6-12.48,3.85,1.42,7,4.69,11.05,5.25,9.38,1.28,15.23-12.07,24.7-12.39a11.61,11.61,0,0,1,4.47.79c-2.74-31.6-4.39-63.42-6-95.2-3.28-63.49-6.57-127-8.28-190.65q-1.69-63-1.32-126.08c-2.77,2.44-7.44,2.45-11.22,1.42a34.14,34.14,0,0,1-14.79-8.43c-1.49-1.44-2.94-3.42-2.37-5.41a5.56,5.56,0,0,1,2-2.59c7.55-5.92,19.76-4.53,25.78,2.93.23.28.44.59.64.89q.26-29.07.92-58.17,8.61,155.42,19.88,310.43c2.71-1,5.82-.43,8.66.28a94.11,94.11,0,0,1,13.37,4.38,30.91,30.91,0,0,1,7.41,4c6.1,4.77,8.61,13.08,8,20.8-.4,5.15-2.16,10.43-6,13.87s-10.06,4.51-14.26,1.5-5.19-8.74-7.72-13.25c-2-3.57-5-6.41-7.88-9.39q5.79,78.39,12.24,156.67a44.35,44.35,0,0,1,5.85,1.1c10,2.86,16.55,12.49,25.78,17.31,6.4,3.34,13.79,4.22,20.5,6.91s13.22,8.24,13.34,15.46c.16,9.33-10.95,15.55-20.14,13.94-6.64-1.17-12.43-5.1-18-8.93-6.55-4.51-14-9.24-21.86-7.82a16.47,16.47,0,0,0-2.22.59q5.55,65.7,11.54,131.33-9.82-31-16.94-63.2c-.1,0-.19.09-.29.12-2.75.89-5.74.19-8.56-.51L209,842.34l-13.68-3.41a13.14,13.14,0,0,1-4.28-1.63c-4-2.75-3.64-9.21-.66-13.1,5.94-7.76,18-7.65,26.87-3.48l1.26.65c-1.47-7.75-2.85-15.54-4.09-23.36q-.93-5.93-1.77-11.88a26.9,26.9,0,0,1-2.85,1.52c-10.72,4.85-24.91-.82-29.35-11.71-.95-2.33-1.57-5-3.43-6.65s-4.28-2-6.64-2.42Zm36.08,142.47c-.62,4-5.67,6.49-11.27,5.61s-9.65-4.81-9-8.79,5.67-6.48,11.27-5.6S187.2,902.27,186.58,906.24Zm20.88,76c-8.73,1.56-11.34,15.42-20.19,16.08-6.51.49-11.06-6.76-17.44-8.19-3.34-.74-7.5-.07-9.6-2.78-1.2-1.55-1.21-3.72-.91-5.66a23.86,23.86,0,0,1,11.11-16.65c3.48-2.11,7.53-3.32,10.58-6,7.45-6.54,6.21-18.89,12.37-26.65s17.92-8.56,27.81-6.87c7.59,1.29,16.06,4.55,18.44,11.88,2.68,8.26-3.85,16.5-5.28,25.06a6.62,6.62,0,0,0,.14,3.51,7.94,7.94,0,0,0,2.94,3.18c6.3,4.74,12.86,11.6,11.21,19.3-1.8,8.43-13.63,11.67-20.88,7-3.52-2.27-6-5.75-9.09-8.63S211.58,981.54,207.46,982.28Zm54.77,143.24c-2.76.67-5.64-.11-8.47-.31-7.24-.5-14.89,2.8-21.57,0-3.64-1.55-16-19.39-18.22-25.54-1.06-2.92-1.71-6.15-.77-9.1,2-6.27,10-8.31,16.55-7.5,11.09,1.38,20.87,7.87,29.31,15.18,4.3,3.73,8.56,8,9.95,13.55S267.76,1124.18,262.23,1125.52Zm9.27-54.63c-.69,4.41-5.94,7.25-11.71,6.35s-9.91-5.22-9.21-9.63,5.93-7.24,11.71-6.34S272.19,1066.48,271.5,1070.89Zm63.4-217.61c-4.93,2.92-10.64,4.74-14.66,8.82-1.65,1.68-3,3.69-4.66,5.33-7.35,7.1-21.66,3.91-25.3-5.64-2.07-5.43-1.41-12.48-6.06-16-3-2.25-7.07-2.06-10.8-2.23s-7.55-.85-10.68-2.88-5.43-5.66-5-9.37c.52-4.89,5.28-8.23,9.95-9.8a33.21,33.21,0,0,1,34.9,9.62c1.57,1.82,3,3.88,5.14,5,5.21,2.67,11.14-1.54,16.89-2.64,6.7-1.28,13.52,1.87,18.88,6.1C344.41,845.25,339.82,850.36,334.9,853.28Z"/><path class="cls-1" d="M184.11,1244.33c-4.55-13.83-12.89-21.91-18.62-18a10.66,10.66,0,0,0-3.72,5.68c-2.09,6.4-1.66,16.51,1.59,26.38,4.36,13.24,12.17,21.18,17.86,18.45a6,6,0,0,0,.75-.4C187.7,1272.52,188.66,1258.17,184.11,1244.33Zm-8.17,23.8c-3.36,1.91-8.07-4.08-10.51-13.38s-1.68-18.38,1.69-20.29,8.08,4.09,10.51,13.38S179.31,1266.23,175.94,1268.13Z"/><path class="cls-1" d="M368,1237.87c-2.84,15-.27,28.18,5.73,30.25a4.22,4.22,0,0,0,.6.2c6.43,1.35,14-10.1,17-25.58,2.9-15.32.14-28.83-6.17-30.39l-.17-.06C378.53,1211,370.94,1222.4,368,1237.87Zm18.2,4.35c-2.39,9.91-7.26,17.1-10.88,16s-4.62-10-2.23-19.87,7.25-17.11,10.87-16.05S388.59,1232.3,386.21,1242.22Z"/><path class="cls-3" d="M167.12,1234.46c-3.37,1.91-4.12,11-1.69,20.29s7.15,15.29,10.51,13.38,4.13-11,1.69-20.29S170.49,1232.56,167.12,1234.46Z"/><path class="cls-3" d="M373.1,1238.4c-2.39,9.92-1.39,18.81,2.23,19.87s8.49-6.14,10.88-16,1.38-18.82-2.24-19.87S375.48,1228.48,373.1,1238.4Z"/><path class="cls-4" d="M259.06,1098.21c-8.44-7.31-18.22-13.8-29.31-15.18-6.53-.81-14.53,1.23-16.55,7.5-.94,3-.29,6.18.77,9.1,2.23,6.15,14.58,24,18.22,25.54,6.68,2.84,14.33-.46,21.57,0,2.83.2,5.71,1,8.47.31,5.53-1.34,8.18-8.24,6.78-13.76S263.36,1101.94,259.06,1098.21Z"/><path class="cls-5" d="M227.76,995.47c7.25,4.68,19.08,1.44,20.88-7,1.65-7.7-4.91-14.56-11.21-19.3a7.94,7.94,0,0,1-2.94-3.18,6.62,6.62,0,0,1-.14-3.51c1.43-8.56,8-16.8,5.28-25.06-2.38-7.33-10.85-10.59-18.44-11.88-9.89-1.69-21.57-1-27.81,6.87s-4.92,20.11-12.37,26.65c-3,2.69-7.1,3.9-10.58,6a23.86,23.86,0,0,0-11.11,16.65c-.3,1.94-.29,4.11.91,5.66,2.1,2.71,6.26,2,9.6,2.78,6.38,1.43,10.93,8.68,17.44,8.19,8.85-.66,11.46-14.52,20.19-16.08,4.12-.74,8.17,1.67,11.21,4.56S224.24,993.2,227.76,995.47Z"/><path class="cls-6" d="M324.58,833.5c-5.75,1.1-11.68,5.31-16.89,2.64-2.14-1.1-3.57-3.16-5.14-5a33.21,33.21,0,0,0-34.9-9.62c-4.67,1.57-9.43,4.91-9.95,9.8-.39,3.71,1.91,7.34,5,9.37s6.95,2.71,10.68,2.88,7.81,0,10.8,2.23c4.65,3.49,4,10.54,6.06,16,3.64,9.55,18,12.74,25.3,5.64,1.7-1.64,3-3.65,4.66-5.33,4-4.08,9.73-5.9,14.66-8.82s9.51-8,8.56-13.68C338.1,835.37,331.28,832.22,324.58,833.5Z"/><path class="cls-6" d="M217.28,820.72c-8.84-4.17-20.93-4.28-26.87,3.48-3,3.89-3.39,10.35.66,13.1a13.14,13.14,0,0,0,4.28,1.63L209,842.34l5.34,1.34c2.82.7,5.81,1.4,8.56.51.1,0,.19-.08.29-.12q-2.5-11.3-4.68-22.7Z"/><path class="cls-6" d="M177.05,769.29c1.86,1.7,2.48,4.32,3.43,6.65,4.44,10.89,18.63,16.56,29.35,11.71a26.9,26.9,0,0,0,2.85-1.52c-2.68-18.8-4.73-37.74-6.39-56.77a11.61,11.61,0,0,0-4.47-.79c-9.47.32-15.32,13.67-24.7,12.39-4.06-.56-7.2-3.83-11.05-5.25-9.5-3.52-18.91,4.87-25.6,12.48a11.68,11.68,0,0,0-3,4.85c-1.42,6.2,6.76,9.75,13,10.73l19.91,3.1C172.77,767.24,175.29,767.68,177.05,769.29Z"/><path class="cls-6" d="M230.84,775.35c7.83-1.42,15.31,3.31,21.86,7.82,5.56,3.83,11.35,7.76,18,8.93,9.19,1.61,20.3-4.61,20.14-13.94-.12-7.22-6.64-12.78-13.34-15.46s-14.1-3.57-20.5-6.91c-9.23-4.82-15.77-14.45-25.78-17.31a44.35,44.35,0,0,0-5.85-1.1c1.06,12.86,2.17,25.71,3.26,38.56A16.47,16.47,0,0,1,230.84,775.35Z"/><path class="cls-6" d="M293.27,748.47c4.08,2.74,10.71.9,13.56,4.91,1.07,1.5,1.24,3.44,1.71,5.23a15.33,15.33,0,0,0,10.17,10.54,8.5,8.5,0,0,0,10.19-3.55c4.42-5.92,3.76-14.63-.31-20.78s-11-10-18.1-11.92c-5.37-1.45-11.54-1.8-16.07,1.42S288.65,745.36,293.27,748.47Z"/><path class="cls-6" d="M221,590.1c2.53,4.51,3.51,10.24,7.72,13.25s10.41,1.95,14.26-1.5,5.61-8.72,6-13.87c.59-7.72-1.92-16-8-20.8a30.91,30.91,0,0,0-7.41-4,94.11,94.11,0,0,0-13.37-4.38c-2.84-.71-5.95-1.24-8.66-.28.54,7.4,1.05,14.81,1.59,22.21C216,583.69,219,586.53,221,590.1Z"/><path class="cls-6" d="M128.53,590.38a7,7,0,0,0,2.89-2.1c4.68-4.77,9.3-9.5,14-14.22,5.9-6,12.25-14.2,8.89-21.9-2.62-5.91-10.4-9.2-11-15.63-.33-3.54,1.7-6.76,2.77-10.13a19.24,19.24,0,0,0-15.29-24.71c-2.55,29.14-4.73,58.37-6.7,87.55A4.51,4.51,0,0,0,128.53,590.38Z"/><path class="cls-1" d="M214.45,798c1.24,7.82,2.62,15.61,4.09,23.36s3,15.17,4.68,22.7q7.13,32.14,16.94,63.2-6-65.61-11.54-131.33c-1.09-12.85-2.2-25.7-3.26-38.56q-6.45-78.28-12.24-156.67c-.54-7.4-1.05-14.81-1.59-22.21q-11.24-155-19.88-310.43-.69,29.1-.92,58.17c2,2.89,3,6.7,1.22,9.66a6.67,6.67,0,0,1-1.3,1.53q-.36,63.1,1.32,126.08c1.71,63.67,5,127.16,8.28,190.65,1.65,31.78,3.3,63.6,6,95.2,1.66,19,3.71,38,6.39,56.77Q213.52,792.09,214.45,798Z"/><path class="cls-7" d="M281.89,550a5.33,5.33,0,0,0-2,2.58c-.56,2,.85,4,2.34,5.43a34.52,34.52,0,0,0,14.8,8.41,21.66,21.66,0,0,0,4,.67c-2.25-6.93-4.46-13.81-6.67-20.74A18.14,18.14,0,0,0,281.89,550Z"/><path class="cls-7" d="M192,315.9c1.75-3,.76-6.77-1.22-9.66-.2-.3-.41-.61-.64-.89-6-7.46-18.23-8.85-25.78-2.93a5.56,5.56,0,0,0-2,2.59c-.57,2,.88,4,2.37,5.41a34.14,34.14,0,0,0,14.79,8.43c3.78,1,8.45,1,11.22-1.42A6.67,6.67,0,0,0,192,315.9Z"/><path class="cls-7" d="M230.25,376.14c1.86,1.51,4,3.09,6.21,3.63a4.18,4.18,0,0,0,4.39-2c2.87-4.56,2.1-11.21-1.23-15.68s-8.51-7.1-13.91-8.69a4.14,4.14,0,0,0-4.78,1.57c-1.83,3.06-1.74,7.34-.19,10.7C222.74,370,226.56,373.14,230.25,376.14Z"/><path class="cls-7" d="M231,411.43c-.93,5.93,1.74,11.27,6,11.93s8.39-3.61,9.32-9.53-1.74-11.26-6-11.92S231.88,405.51,231,411.43Z"/><path class="cls-7" d="M236,391.92c3.14.5,6-.81,6.28-2.9s-1.95-4.2-5.09-4.69-6,.81-6.29,2.9S232.86,391.43,236,391.92Z"/><path class="cls-7" d="M240,499.08c-.63,4,3.41,7.91,9,8.79s10.65-1.64,11.27-5.61-3.41-7.9-9-8.78S240.62,495.11,240,499.08Z"/><path class="cls-7" d="M177.56,897.46c-5.6-.88-10.65,1.63-11.27,5.6s3.41,7.91,9,8.79,10.65-1.63,11.27-5.61S183.16,898.34,177.56,897.46Z"/><path class="cls-7" d="M281.13,593c8.12,1.27,15.49-2.72,16.46-8.92s-4.83-12.25-12.95-13.52-15.48,2.72-16.46,8.91S273,591.72,281.13,593Z"/><path class="cls-7" d="M262.29,1061.27c-5.78-.9-11,1.94-11.71,6.34s3.43,8.72,9.21,9.63,11-1.94,11.71-6.35S268.07,1062.18,262.29,1061.27Z"/></g></g></svg>