<svg xmlns="http://www.w3.org/2000/svg" viewBox="0 0 548.38 1424"><defs><style>.cls-1{fill:#f2d2af;}.cls-2{fill:#010405;}.cls-3{fill:#020406;}.cls-4{fill:#ff1900;}.cls-5{fill:#040303;}</style></defs><title>Asset 5</title><g id="Layer_2" data-name="Layer 2"><g id="Layer_1-2" data-name="Layer 1"><path class="cls-1" d="M546.62,1029c-5.36-9.16-19.87-10.13-31.76-9.55a698.21,698.21,0,0,0-96.38,11.44c-3.06.59-6.14,1.21-9.18,1.93.07-1.73.15-3.47.22-5.23.83-19.6.72-50.22.13-81.21h0a23.08,23.08,0,0,0-5-3.25c-5-2.34-11-3.36-14.79-7-9.67-9.55,5.38-24.78.39-36.71-6,1.52-11.3-4.73-10.67-10.1s4.82-9.79,7.86-14.48,4.95-10.88,1.25-15.19c-2.25-2.61-6-3.88-9.57-4.8-14.89-3.87-31-4.28-45-10.13s-25.28-20.3-18.66-32.4c1.7-3.09,4.49-6,4.25-9.42-.53-6.79-11.79-8.79-15.25-14.91-3.64-6.43,3.85-14.22,12.09-15.23s16.22,2.44,23.59,5.8,15.33,6.81,23.56,5.81c8.06-1,17-5.93,23.46-1.69,10.76-9.81,8.17-28-5.05-35.19-5.8-3.19-13.61-5-15.84-10.63-3.24-8.16,8.63-15.5,8.67-24.13,0-6.82-7.16-11.85-13.68-15.73-9.23-5.5-18.81-11.13-24.89-19.27s-7.78-19.53-.94-27.2c6.06-6.77,17.93-10.17,19.67-18.57,1.52-7.41-6.14-14.93-3.33-22.06,1.22-3.13,4.29-5.48,5.83-8.5,4.36-8.48-4.42-17.5-12.95-23.14s-18.69-12.42-17.89-21.67c1-11.63,18.5-17.07,22.94-28.1.13-.3.24-.62.37-.94v0c-20.67-82.48-44.11-164.62-65.37-247-7-3.53-15.44-5.5-22.49-2.48-8.46,3.61-10.46,12.59-9,20.08s5.49,14.68,5.25,22.24c-.52,15.8-19,28.22-21.17,43.92-1.09,7.95,2.16,15.88,1.85,23.88s-6.29,17.07-16.4,17.55a76.61,76.61,0,0,1-9.41-11.35c-4.53,30.32-10,67.55-16,109,10.24,9.3,16.62,21.72,17.69,34.51.37,4.45.35,9.42,3.94,12.63,7,6.24,19.58-.49,23.27-8.54s3.52-17.63,9.93-24.33c1.83-1.93,4.64-3.62,7.45-3s4.4,3.17,6.81,4.56c4.84,2.82,11.63.11,15.27-3.82s5.47-8.92,9.13-12.82c5.81-6.24,16.68-8.89,25.05-5.44s12.67,13.25,8.23,20.28c-4.62,7.34-16.14,9.92-20.56,17.33-7.91,13.27,12,31,1.94,43.13-7.71,9.34-26,5.76-35.88,13.45-6.12,4.74-7.42,12.59-12.35,18.27-5.27,6.08-14.83,9.13-23.43,7.5s-15.77-7.89-17.56-15.32C206,597,193.33,603.42,186,611.28c-1.63,1.74-3.16,3.6-4.68,5.47v0c-4.69,33.92-9.39,68.81-13.92,103.62,13.22,1,28.9,6,30.19,17.32,1.06,9.34-8.93,17.69-7.74,27,1.25,9.64,14.05,16.73,12.88,26.39-1.81,14.74-30.93,14-37.86,27.61-3.81,7.45.79,15.87,2.33,23.92,3.2,16.88-7.34,32.49-20.17,46.26-5.65,52-10,99-12.09,136.17A69.76,69.76,0,0,0,119.54,1011c-14.36-9.59-32.43-14-50.25-17-13.3-2.26-26.74-3.87-40.24-4.82-8.12-.57-17.23-.62-23.22,4.13C.27,997.65-.8,1005,.49,1011.38c3.25,16.19,18.25,28.45,32.43,39.45,9.78,7.59,19.61,15.21,30.64,21.4,9.31,5.22,19.37,9.36,29.4,13.49,13.51,5.55,27.15,11.11,41.32,15.18,1.53,48.68,4.4,96.64,12.94,145,6.14,34.91,12.72,70.84,33.84,101.09,8.24,11.78,18.78,22.94,21.63,36.47,1.55,7.45.85,15.7,5.95,21.85,5.9,7.13,30,18.61,62.07,18.65,24.09,0,46-3.79,58.4-11.41,5-3.07,4.9-6.07,7.12-11-1.81.17,1.59-20.88,17.16-43.12,5.06-7.24,7.41-15.63,9.94-23.81,5.86-18.91,10.87-36.1,15.2-52.24a7,7,0,0,1-4.69,1.62c-5.91-.38-9.89-9.79-8.9-21s6.58-20,12.49-19.61c3.89.25,6.93,4.42,8.29,10.44,10.82-46.3,15.93-86.58,19.46-140.24,48-7.57,93.31-27.3,128.75-56.17C543.14,1049.92,552.32,1038.74,546.62,1029ZM174.9,1283.27c-5.69,1.43-13.28-6.16-17-17s-2-20.72,3.64-22.16,13.28,6.15,16.95,16.95S180.59,1281.83,174.9,1283.27Zm166.54,12.24c2.82,6.09,1.45,13-.63,19.3-3.28,9.9-9.19,20.23-20.2,24.25-4.24,1.55-9.14,2.12-12.54,4.8-2.56,2-3.85,4.91-5.42,7.57-5.12,8.67-14.53,15.89-26,16.74a7,7,0,0,1-3-.44c-7.21-2.75-3.65-9.62-2.69-15.13,1.72-9.76-6.34-18.67-8.69-28.34-31.5,1.06-58.83-24.25-61.77-51.31-.65-6-.35-12-1.3-17.91-1.2-7.52-4.39-14.77-4.93-22.34-.9-12.53,5.46-24.51,11.93-35.75,8.33-14.48,18.36-29.8,35.58-36.21,14.4-5.35,31.15-3.28,45.89,1.31a93.67,93.67,0,0,1,23.05,10.36c18.38,11.91,28.62,31.31,32.31,50.85s1.55,39.52-.6,59.24c-.43,3.94-.89,7.92-1.61,11.84A10.92,10.92,0,0,1,341.44,1295.51Zm10.18-303.38c-7-1.81-12.76-6.27-19.83-7.78-9.32-2-19.9,1.15-29.8,3.51-11.28,2.67-22.49-3.68-24.66-13.58-2.11-9.67-14.53-18.77-26.79-17-17,2.43-27.62,18.39-27.9,33.24s6.79,31.21-2.51,43.74c-6,8.06-17.57,12.32-22.65,20.83-6.65,11.12.2,24.28,4.22,36.29,4.24,12.65,2,30.51-14.16,32.4a21.28,21.28,0,0,1-17.2-5.94c-11-10.87-9.63-25.06-14.92-37.49-4.1-9.63-12-17.7-17.29-26.86a40.77,40.77,0,0,1-4.08-9.54c-.44,11.32-.62,21.44-.49,30.16l-18.42-9.75c-4.41-2.34-9-4.79-11.76-8.54s-3.27-9.17.33-12.37c4-3.54,11.05-3,15.57-6a29.82,29.82,0,0,0,4.48-4.36,22.38,22.38,0,0,1,11.1-6c0,.23,0,.47,0,.7a18.88,18.88,0,0,1,2.21-3.56c4.83-6.08,13.43-9.23,18.72-15,14.86-16.24-3.19-42.26,8.88-60.13C172.14,937.93,188.8,934,198.22,924c4.13-4.37,7.1-10,13.07-12.34s13.22-.33,19.87-.92c31.15-2.78,25.61-52.06,61.14-56.6a39.5,39.5,0,0,1,35.07,13.77c16.88,20.55,11.66,45.11,9.13,68.4-.38,3.5-.48,7.52,2.49,9.92,2.38,1.92,5.94,2.13,9.2,2.24l23,.74c12.7.41,21.88,11,18.22,21.48a33.85,33.85,0,0,1-5.49,10.05C376.92,989.59,363.55,995.22,351.62,992.13Zm102.06,67.41c-6.65,5.3-20.7,1.47-24,8.71-2.52,5.43,4.46,10.58,5.73,16.32,1,4.37-1.65,8.93-5.66,11.75s-9.18,4.1-14.31,4.66a50.39,50.39,0,0,1-9.44.13c1.2-20.24,2.24-42.42,3.31-67.48,9-.16,17.89,1.74,26.57,3.84,6.15,1.48,12.59,3.22,16.94,7.25S458.37,1055.81,453.68,1059.54Z"/><path class="cls-2" d="M134.82,1027.75c0-.23,0-.47,0-.7a22.38,22.38,0,0,0-11.1,6,29.82,29.82,0,0,1-4.48,4.36c-4.52,3-11.56,2.47-15.57,6-3.6,3.2-3.13,8.63-.33,12.37s7.35,6.2,11.76,8.54l18.42,9.75c-.13-8.72.05-18.84.49-30.16C132.54,1038.42,132.46,1032.73,134.82,1027.75Z"/><path class="cls-3" d="M435.84,1037.47c-8.68-2.1-17.59-4-26.57-3.84-1.07,25.06-2.11,47.24-3.31,67.48a50.39,50.39,0,0,0,9.44-.13c5.13-.56,10.31-1.85,14.31-4.66s6.63-7.38,5.66-11.75c-1.27-5.74-8.25-10.89-5.73-16.32,3.34-7.24,17.39-3.41,24-8.71,4.69-3.73,3.46-10.8-.9-14.82S442,1039,435.84,1037.47Z"/><path class="cls-1" d="M254.12,224.57c.56-4.07-.9-8.1-1.77-12.13a45,45,0,0,1,7.28-35,54.77,54.77,0,0,0,2.68,8.53c-5.23-27.78-8.39-55.79-7-83.87,1.54-31,8.51-63.16-3.23-92.55-1.57-3.88-4-8.12-8.58-9.23-3.42-.84-7,.36-10.21,1.69C194,18.53,176,64.57,195.57,98.26c-11.41-15.18-40.75-13.45-54.06.52s-12.57,34.89-3.79,51.3,24.15,29.4,39.05,42.12,30,26,38,42.75c5.4,11.37,8.91,26.26,10.56,41.27,1.29-9.8,2.72-19.55,9.39-27.71S252.79,234.12,254.12,224.57Z"/><path class="cls-4" d="M343,1223.26c-3.69-19.54-13.93-38.94-32.31-50.85a93.67,93.67,0,0,0-23.05-10.36c-14.74-4.59-31.49-6.66-45.89-1.31-17.22,6.41-27.25,21.73-35.58,36.21-6.47,11.24-12.83,23.22-11.93,35.75.54,7.57,3.73,14.82,4.93,22.34,1,5.93.65,12,1.3,17.91,2.94,27.06,30.27,52.37,61.77,51.31a.74.74,0,0,0,0-.14c-2.25-9.53,1.62-19.95,9.86-26.59s20.59-9.26,31.48-6.69c3.21.76,6.5,2,9.77,1.36,3.72-.67,6.4-3.48,9.9-4.77,6.54-2.41,14.3,1.42,17.58,6.91.72-3.92,1.18-7.9,1.61-11.84C344.58,1262.78,346.72,1242.81,343,1223.26Z"/><path class="cls-5" d="M323.24,1287.43c-3.5,1.29-6.18,4.1-9.9,4.77-3.27.59-6.56-.6-9.77-1.36-10.89-2.57-23.23.05-31.48,6.69s-12.11,17.06-9.86,26.59a.74.74,0,0,1,0,.14c2.35,9.67,10.41,18.58,8.69,28.34-1,5.51-4.52,12.38,2.69,15.13a7,7,0,0,0,3,.44c11.48-.85,20.89-8.07,26-16.74,1.57-2.66,2.86-5.56,5.42-7.57,3.4-2.68,8.3-3.25,12.54-4.8,11-4,16.92-14.35,20.2-24.25,2.08-6.31,3.45-13.21.63-19.3a10.92,10.92,0,0,0-.62-1.17C337.54,1288.85,329.78,1285,323.24,1287.43Z"/><path class="cls-3" d="M326.73,556.54c-.8,9.25,9.35,16,17.89,21.67s17.31,14.66,12.95,23.14c-1.54,3-4.61,5.37-5.83,8.5-2.81,7.13,4.85,14.65,3.33,22.06-1.74,8.4-13.61,11.8-19.67,18.57-6.84,7.67-5.14,19.08.94,27.2S352,691.45,361.23,697c6.52,3.88,13.7,8.91,13.68,15.73,0,8.63-11.91,16-8.67,24.13,2.23,5.59,10,7.44,15.84,10.63,13.22,7.24,15.81,25.38,5.05,35.19-6.49-4.24-15.4.73-23.46,1.69-8.23,1-16.22-2.47-23.56-5.81s-15.36-6.81-23.59-5.8-15.73,8.8-12.09,15.23c3.46,6.12,14.72,8.12,15.25,14.91.24,3.4-2.55,6.33-4.25,9.42-6.62,12.1,4.68,26.54,18.66,32.4s30.11,6.26,45,10.13c3.6.92,7.32,2.19,9.57,4.8,3.7,4.31,1.8,10.5-1.25,15.19s-7.2,9.14-7.86,14.48,4.68,11.62,10.67,10.1c5,11.93-10.06,27.16-.39,36.71,3.75,3.67,9.83,4.69,14.79,7a23.08,23.08,0,0,1,5,3.25c-.61-33.13-1.8-66.67-3-87.62C400.16,747,377.5,637,350,527.5c-.13.32-.24.64-.37.94C345.23,539.47,327.71,544.91,326.73,556.54Z"/><path class="cls-3" d="M239.15,388.17c.31-8-2.94-15.93-1.85-23.88,2.16-15.7,20.65-28.12,21.17-43.92.24-7.56-3.74-14.78-5.25-22.24s.5-16.47,9-20.08c7.05-3,15.46-1.05,22.49,2.48q-4.73-18.31-9.3-36.62c-4.79-19.2-9.43-38.54-13.06-58a54.77,54.77,0,0,1-2.68-8.53,45,45,0,0,0-7.28,35c.87,4,2.33,8.06,1.77,12.13-1.33,9.55-12.83,15.85-19.41,23.94s-8.1,17.91-9.39,27.71h0c1.55,14.13,1.46,28.35-.22,39.79-1.24,8.46-5.59,36.92-11.76,78.35a76.61,76.61,0,0,0,9.41,11.35C232.86,405.24,238.85,396.16,239.15,388.17Z"/><path class="cls-3" d="M167.23,842.66c-1.54-8-6.14-16.47-2.33-23.92,6.93-13.58,36-12.87,37.86-27.61,1.17-9.66-11.63-16.75-12.88-26.39-1.19-9.34,8.8-17.69,7.74-27-1.29-11.3-17-16.32-30.19-17.32-7.56,58.06-14.66,115.87-20.37,168.53C159.89,875.15,170.43,859.54,167.23,842.66Z"/><path class="cls-3" d="M383.94,980.72a33.85,33.85,0,0,0,5.49-10.05c3.66-10.48-5.52-21.07-18.22-21.48l-23-.74c-3.26-.11-6.82-.32-9.2-2.24-3-2.4-2.87-6.42-2.49-9.92,2.53-23.29,7.75-47.85-9.13-68.4a39.5,39.5,0,0,0-35.07-13.77c-35.53,4.54-30,53.82-61.14,56.6-6.65.59-13.76-1.43-19.87.92s-8.94,8-13.07,12.34c-9.42,10-26.08,13.95-33.59,25.06-12.07,17.87,6,43.89-8.88,60.13-5.29,5.79-13.89,8.94-18.72,15a18.88,18.88,0,0,0-2.21,3.56c-2.36,5-2.28,10.67-.77,16.18a40.77,40.77,0,0,0,4.08,9.54c5.33,9.16,13.19,17.23,17.29,26.86,5.29,12.43,3.91,26.62,14.92,37.49a21.28,21.28,0,0,0,17.2,5.94c16.13-1.89,18.4-19.75,14.16-32.4-4-12-10.87-25.17-4.22-36.29,5.08-8.51,16.67-12.77,22.65-20.83,9.3-12.53,2.24-28.87,2.51-43.74s10.9-30.81,27.9-33.24c12.26-1.75,24.68,7.35,26.79,17,2.17,9.9,13.38,16.25,24.66,13.58,9.9-2.36,20.48-5.49,29.8-3.51,7.07,1.51,12.86,6,19.83,7.78C363.55,995.22,376.92,989.59,383.94,980.72Z"/><path class="cls-3" d="M216.28,601.75c1.79,7.43,8.95,13.67,17.56,15.32s18.16-1.42,23.43-7.5c4.93-5.68,6.23-13.53,12.35-18.27,9.89-7.69,28.17-4.11,35.88-13.45,10-12.14-9.85-29.86-1.94-43.13,4.42-7.41,15.94-10,20.56-17.33,4.44-7,.15-16.81-8.23-20.28s-19.24-.8-25.05,5.44c-3.66,3.9-5.51,8.89-9.13,12.82s-10.43,6.64-15.27,3.82c-2.41-1.39-4-4-6.81-4.56s-5.62,1.09-7.45,3c-6.41,6.7-6.25,16.27-9.93,24.33S226,556.76,219,550.52c-3.59-3.21-3.57-8.18-3.94-12.63-1.07-12.79-7.45-25.21-17.69-34.51-5.09,35.32-10.54,73.68-16,113.37,1.52-1.87,3.05-3.73,4.68-5.47C193.33,603.42,206,597,216.28,601.75Z"/><ellipse class="cls-3" cx="168.24" cy="1263.71" rx="10.58" ry="20.68" transform="translate(-430.87 138.39) rotate(-20.45)"/><path class="cls-3" d="M377.43,1243.4c-5.91-.39-11.5,8.39-12.49,19.61s3,20.64,8.9,21a7,7,0,0,0,4.69-1.62c3.94-3,7.09-9.84,7.81-18a34.78,34.78,0,0,0-.62-10.58C384.36,1247.82,381.32,1243.65,377.43,1243.4Z"/></g></g></svg>