<svg xmlns="http://www.w3.org/2000/svg" viewBox="0 0 603.07 1368.1"><defs><style>.cls-1{fill:#ffa600;}.cls-2{fill:#020507;}.cls-3{fill:#040404;}.cls-4{fill:#020406;}.cls-5{fill:#030607;}.cls-6{fill:#030608;}.cls-7{fill:#f2d2af;}</style></defs><title>Asset 8</title><g id="Layer_2" data-name="Layer 2"><g id="Layer_1-2" data-name="Layer 1"><path class="cls-1" d="M428.35,919.17q4.36-3.2,8.87-6.1a175.62,175.62,0,0,0-22.31,14.74c-1.46,1.13-2.9,2.32-4.33,3.52.64,1.16,1.26,2.32,1.91,3.48C416.38,928.5,422.33,923.58,428.35,919.17Z"/><path class="cls-1" d="M598.11,911.06a1.92,1.92,0,0,0-.19-.23c-.07.25-.16.53-.25.78C597.83,911.43,598,911.24,598.11,911.06Z"/><path class="cls-1" d="M465.89,1015.45a342.87,342.87,0,0,0,112.63-81.08c-1.8,1.36-3.67,2.65-5.48,4-36.26,26-73.45,52.48-116.32,64.91-1.62.46-3.28.9-4.94,1.26-7.69-15-16.19-29.56-24.68-44.16-4.8,9.08-11.34,17.35-14.57,27.1-3.93,11.94-2.47,24.9-1.53,37.42a455.53,455.53,0,0,1,1.18,46.29c-.42,15.75-1.89,32.22-10.32,45.53-9.29,14.64-29.5,23.88-44.66,13.65a16.76,16.76,0,0,0-7.11-2.72c-9.1-1.23-10.35,5.79-13.58,10.78-4,6.22-11.11,9.1-18.67,9.73a13.66,13.66,0,0,1-13.14-7.42,13.67,13.67,0,0,0-10.42-6.72c-9.58-.76-19.52,4.92-28.22-5-5.16-5.82-6.63-13.92-4.76-21.45a49.89,49.89,0,0,1,21-29.36c7.16-4.67,15.82-7.83,21-14.42a19.36,19.36,0,0,0-2.19-26.15c-7-6.58-16.91-5.1-25-8.77-12.63-5.76-16.67-23.36-10.53-35.81s19.82-19.77,33.52-22c13.07-2.11,30.56-3.26,33.26-16.22.53-2.63.28-5.43,1-8,1.57-5.5,6.6-8.15,12.45-9.28a8.53,8.53,0,0,0,6.26-11.72A29.82,29.82,0,0,1,349.6,916c-.43-7.65,4.09-16.15,11.65-17.39,3.37-.56,6.86.37,10.25-.05,8.13-1,12.08-8.2,13.61-16.68-20.95-43.08-39.87-87.2-60.61-130.39-21.93-45.58-44.45-91.24-64.4-137.6a5.65,5.65,0,0,0-1-.37c-6.84-1.83-12.62,4.94-19,8-8.53,4.14-19.54,1.06-25.66-6.17s-7.49-17.81-4.65-26.84c1.78-5.63,5-10.72,7-16.33s2.28-12.29-1.32-17c-2.24-2.89-5.78-4.73-7.53-7.95-3.4-6.23,1.41-13.51,5.13-19.56s5.47-15.68-.9-18.8c-2-.93-4.3-1-6.08-2.22-4.92-3.44-1-10.93,2.26-15.92a52.55,52.55,0,0,0,5-9.51A575.32,575.32,0,0,1,198.51,403v0a10.5,10.5,0,0,1-2.47-2.15c-4.76-5.7-3.3-15.22-8.89-20.12-4.58-4-11.51-2.89-17.58-2.38s-13.68-.9-15.45-6.72c-2-6.74,5.4-12.2,11.55-15.59s13.07-10,9.77-16.22c-1.62-3-5.18-4.45-7.26-7.18-5.17-6.72,1.11-16.31,7.95-21.34,6.51-4.85,13.77-8.55,20.72-12.73,2.61-18.27,7.78-35.6,17.14-51.12a111.11,111.11,0,0,1,28.27-63.18c11.21-12.19,25-21.66,37.72-32.27a267.14,267.14,0,0,0,64.75-79.8c3.33-16.89,4.67-34.68,3.1-51.12-4.3,4.06-9.15,7.6-13.82,11.25a235,235,0,0,0-68.42,87,221.49,221.49,0,0,1,61.72-102c-23.07,21.21-45.5,43.54-61.81,70.25-17.92,29.36-27.81,62.8-42.71,93.8-12.45,25.87-40.45,51.08-68,65.93-.4.53-.77,1.08-1.14,1.61-35.75,52.86-53,121.34-59.22,191.4a7.74,7.74,0,0,1,3-.6,14,14,0,0,1,5.52,1.67c12.8,5.91,27.81,15.54,26,29.54-.53,4.23-2.7,8.34-2,12.57,1.59,10.65,16.51,11.06,26.19,15.75,14,6.79,17.93,25.48,15,40.77-4.3,22.25-21.92,43.15-44.49,44.95-3.16.26-7,.53-8.41,3.37-.8,1.62-.46,3.56,0,5.29,1.83,6.63,5.5,12.76,6.29,19.59s-2.75,15-9.57,15.87c-2.77.33-6-.48-8.06,1.39a16.27,16.27,0,0,1-4.32,1.78c1.32,12.4,2.61,24.44,3.93,36.19,4,35.74,8.08,68.93,12.91,101.71,3.81-1.64,8.27-.35,11.78,3.95,5.57,6.84,8.57,19.61,14.81,24.07,7.23,5.2,14.39-3.93,22-2.77,6.74,1.06,12.12,9.7,15.91,20.44,3,8.62,2.27,18.85-1.57,24.92-7.37,11.67-8.55,35.14-.9,50.29,3.12,6.12,7.16,10.63,10.76,15.94A75.13,75.13,0,0,1,196,919.31c4.94,11.06,7.88,25.36,6,37.6s-9.57,21-17.1,16.86c-7.85-4.29-14.83-20.58-22.13-16.63-2.42,1.32-4.11,4.69-6,7.49-.39.57-.81,1.13-1.25,1.66.58,2.17,1.16,4.37,1.76,6.56.76,2.83,1.56,5.69,2.37,8.55a801,801,0,0,0,33.2,94.12c-25.91-.51-53.31-2.61-81-5.64a322.54,322.54,0,0,0,84.21,13.18c0,.13.11.26.17.4a134.82,134.82,0,0,1-63.44,4.64c23.46,7.6,47.94,13.62,72.44,15.09q1.62,3.42,3.28,6.83c19.27,39.57,42,76.76,67.59,106.7,4.48-4,15.55.8,24.77,10.82a52.17,52.17,0,0,1,6.14,8.11c7,.18,13.86.74,19.73,4.32,12.36,7.55,14.48,24.88,24.48,35.34,7.23,7.53,18.14,11,24.7,19.13,12.38,15.38,3.76,38.13,6.72,57.65-.05,0-.07.05-.12.05,20.93,13.95,47.63,19.54,72.19,13.63,16.35-4,33.33-12.5,41.83-26.59-3.44-6.17-11.57-11.11-15.45-17.69-7.09-11.94.9-26.87,8.61-38.39,5.18-7.77,10.4-17.14,11-26v0c-.27-2.58-.53-5.19-.81-7.78a18.66,18.66,0,0,0-2.07-4.6c-4.83-7.69-15.23-11.66-17.49-20.46-2.57-10,6.77-18.53,13.07-26.71.35-.44.67-.87,1-1.34l-.42-4.06a5.69,5.69,0,0,1-1.35.28c-6,.31-11.51-10.5-12.21-24.14-.66-12.73,3.06-23.41,8.46-25-3.7-33.79-8.52-67.55-19.94-99.48-.23-.66-.48-1.31-.72-2,13.64-7.34,26.06-17.38,38.14-27.26q41.44-33.93,82.93-67.84c5-4.12,10.23-8.5,12.52-14.56a18.61,18.61,0,0,0,1.08-4.94C586.26,946.06,526.73,999.74,465.89,1015.45Z"/><path class="cls-2" d="M598.11,911.06c-.14.18-.28.37-.44.55.09-.25.18-.53.25-.78a27.6,27.6,0,0,0-3.76-4.23,29.73,29.73,0,0,0-3-2.42c-.86.57-1.71,1.15-2.59,1.71a416.57,416.57,0,0,1-110.16,50.26q45.39-25.53,89.72-53.11c3-1.87,6.05-3.76,9-5.77-2.77-.92-5.59-1.69-8.43-2.38-44-10.76-91.91-3.83-131.46,18.13,0,0-.05,0-.07.05q-4.5,2.91-8.87,6.1c-6,4.41-12,9.33-15.86,15.64-.65-1.16-1.27-2.32-1.91-3.48-8.94-16.25-17.38-32.77-25.47-49.47-1.53,8.48-5.48,15.66-13.61,16.68-3.39.42-6.88-.51-10.25.05-7.56,1.24-12.08,9.74-11.65,17.39a29.82,29.82,0,0,0,2.48,9.86,8.53,8.53,0,0,1-6.26,11.72c-5.85,1.13-10.88,3.78-12.45,9.28-.74,2.61-.49,5.41-1,8-2.7,13-20.19,14.11-33.26,16.22-13.7,2.19-27.38,9.51-33.52,22s-2.1,30.05,10.53,35.81c8.09,3.67,18,2.19,25,8.77a19.36,19.36,0,0,1,2.19,26.15c-5.15,6.59-13.81,9.75-21,14.42a49.89,49.89,0,0,0-21,29.36c-1.87,7.53-.4,15.63,4.76,21.45,8.7,9.89,18.64,4.21,28.22,5a13.67,13.67,0,0,1,10.42,6.72,13.66,13.66,0,0,0,13.14,7.42c7.56-.63,14.63-3.51,18.67-9.73,3.23-5,4.48-12,13.58-10.78a16.76,16.76,0,0,1,7.11,2.72c15.16,10.23,35.37,1,44.66-13.65,8.43-13.31,9.9-29.78,10.32-45.53a455.53,455.53,0,0,0-1.18-46.29c-.94-12.52-2.4-25.48,1.53-37.42,3.23-9.75,9.77-18,14.57-27.1,8.49,14.6,17,29.2,24.68,44.16,1.66-.36,3.32-.8,4.94-1.26,42.87-12.43,80.06-38.9,116.32-64.91,1.81-1.32,3.68-2.61,5.48-4a342.87,342.87,0,0,1-112.63,81.08c60.84-15.71,120.37-69.39,137.11-88.29A24.6,24.6,0,0,0,598.11,911.06Z"/><path class="cls-1" d="M478.43,956.15a416.57,416.57,0,0,0,110.16-50.26c.88-.56,1.73-1.14,2.59-1.71a49.83,49.83,0,0,0-14-6.91c-3,2-6,3.9-9,5.77Q523.83,930.63,478.43,956.15Z"/><path class="cls-3" d="M132.88,1088.1a134.82,134.82,0,0,0,63.44-4.64c-.06-.14-.12-.27-.17-.4a322.54,322.54,0,0,1-84.21-13.18c27.65,3,55.05,5.13,81,5.64a801,801,0,0,1-33.2-94.12c-17.09-7.13-36.36-7.36-54.76-5.11a218.89,218.89,0,0,0-73.16,22.52c-2.28,1.18-4.57,2.45-6.83,3.84a460.77,460.77,0,0,0,111,48.72c-13.33.62-26.47-2.82-39.36-6.26-29.91-8-59.85-16.34-88.22-28.76-5.31,6.26-8.68,13.53-8.36,21.78.65,16.17,15.39,27.88,29.38,36A287.21,287.21,0,0,0,208.6,1110q-1.66-3.4-3.28-6.83C180.82,1101.72,156.34,1095.7,132.88,1088.1Z"/><path class="cls-1" d="M136,1051.37a460.77,460.77,0,0,1-111-48.72,69.29,69.29,0,0,0-16.57,13.7c28.37,12.42,58.31,20.76,88.22,28.76C109.49,1048.55,122.63,1052,136,1051.37Z"/><path class="cls-4" d="M162.82,957.14c7.3-3.95,14.28,12.34,22.13,16.63,7.53,4.12,15.18-4.55,17.1-16.86s-1.07-26.54-6-37.6A75.13,75.13,0,0,0,189.13,907c-3.6-5.31-7.64-9.82-10.76-15.94-7.65-15.15-6.47-38.62.9-50.29,3.84-6.07,4.62-16.3,1.57-24.92-3.79-10.74-9.17-19.38-15.91-20.44-7.58-1.16-14.74,8-22,2.77-6.24-4.46-9.24-17.23-14.81-24.07-3.51-4.3-8-5.59-11.78-3.95,5.31,36.15,11.53,71.81,19.41,109.84v0c5,24.46,10.81,49.85,17.46,77,.74,3.07,1.52,6.19,2.33,9.31.44-.53.86-1.09,1.25-1.66C158.71,961.83,160.4,958.46,162.82,957.14Z"/><path class="cls-2" d="M111.91,629c6.82-.83,10.38-9,9.57-15.87s-4.46-13-6.29-19.59c-.46-1.73-.8-3.67,0-5.29,1.41-2.84,5.25-3.11,8.41-3.37,22.57-1.8,40.19-22.7,44.49-44.95,3-15.29-.92-34-15-40.77-9.68-4.69-24.6-5.1-26.19-15.75-.65-4.23,1.52-8.34,2-12.57,1.76-14-13.25-23.63-26-29.54a14,14,0,0,0-5.52-1.67,7.74,7.74,0,0,0-3,.6c-5.06,56.64-2.94,114.3,2.35,165.6q1.39,13.46,2.75,26.34a16.27,16.27,0,0,0,4.32-1.78C105.91,628.56,109.14,629.37,111.91,629Z"/><path class="cls-5" d="M206,506.64c1.78,1.25,4.11,1.29,6.08,2.22,6.37,3.12,4.59,12.75.9,18.8s-8.53,13.33-5.13,19.56c1.75,3.22,5.29,5.06,7.53,7.95,3.6,4.71,3.23,11.41,1.32,17s-5.18,10.7-7,16.33c-2.84,9-1.45,19.59,4.65,26.84s17.13,10.31,25.66,6.17c6.37-3.07,12.15-9.84,19-8a5.65,5.65,0,0,1,1,.37c-18.71-43.41-35.18-87.46-46.83-132.66a52.55,52.55,0,0,1-5,9.51C205,495.71,201.1,503.2,206,506.64Z"/><path class="cls-6" d="M168.18,332.61c2.08,2.73,5.64,4.16,7.26,7.18,3.3,6.19-3.61,12.82-9.77,16.22s-13.59,8.85-11.55,15.59c1.77,5.82,9.37,7.23,15.45,6.72s13-1.64,17.58,2.38c5.59,4.9,4.13,14.42,8.89,20.12a10.5,10.5,0,0,0,2.47,2.15q-1.35-11.67-2.15-23.47c-1.84-27.21-3.25-55,.49-81-6.95,4.18-14.21,7.88-20.72,12.73C169.29,316.3,163,325.89,168.18,332.61Z"/><path class="cls-6" d="M222.79,181.33c14.9-31,24.79-64.44,42.71-93.8,16.31-26.71,38.74-49,61.81-70.25a221.49,221.49,0,0,0-61.72,102A235,235,0,0,1,334,32.3c4.67-3.65,9.52-7.19,13.82-11.25-.26-2.64-.58-5.22-1-7.76A15.77,15.77,0,0,0,325.58,1.07c-36,13.86-70.27,47-87,79.8-13.68,26.8-18.51,57.17-30,85-12.12,29.32-35.82,55.16-53.79,81.43C182.34,232.41,210.34,207.2,222.79,181.33Z"/><path class="cls-6" d="M280,152c-12.72,10.61-26.51,20.08-37.72,32.27A111.11,111.11,0,0,0,214,247.42a106.68,106.68,0,0,1,15.87-20.3c24-24.1,56.29-37.66,86.11-54,28.09-15.43,54.49-33.73,80.83-52,4.39-3,9.19-6.7,8.08-12.94A12.74,12.74,0,0,0,393.72,98a100.13,100.13,0,0,0-60.42,12,190.63,190.63,0,0,0,11.43-37.86A267.14,267.14,0,0,1,280,152Z"/><path class="cls-6" d="M376,1294.44c-6.56-8.13-17.47-11.6-24.7-19.13-10-10.46-12.12-27.79-24.48-35.34-5.87-3.58-12.74-4.14-19.73-4.32,4.35,7.14,5.67,13.81,2.95,17,10.22,10.85,19.85,22.13,27.22,35s12.29,27.07,20.4,39.47a87.81,87.81,0,0,0,24.94,25c.05,0,.07,0,.12-.05C379.77,1332.57,388.39,1309.82,376,1294.44Z"/><path class="cls-6" d="M480.44,1224.22c2.26,8.8,12.66,12.77,17.49,20.46a18.66,18.66,0,0,1,2.07,4.6q-2.73-26.54-5.49-53.11c-.33.47-.65.9-1,1.34C487.21,1205.69,477.87,1214.21,480.44,1224.22Z"/><path class="cls-6" d="M481.18,1321.49c3.88,6.58,12,11.52,15.45,17.69a37.23,37.23,0,0,0,3.37-7.09c6.52-18.34,4.6-38.46,2.59-57.84-.6-5.73-1.18-11.43-1.78-17.16-.62,8.87-5.84,18.24-11,26C482.08,1294.62,474.09,1309.55,481.18,1321.49Z"/><path class="cls-7" d="M307.1,1235.65a52.17,52.17,0,0,0-6.14-8.11c-9.22-10-20.29-14.85-24.77-10.82l0,0c-4.45,4.1-.56,15.57,8.68,25.62s20.36,14.89,24.81,10.79a3.63,3.63,0,0,0,.41-.47C312.77,1249.46,311.45,1242.79,307.1,1235.65Zm-19.92,4.61c-6.83-7.36-9.82-15.7-6.66-18.63s11.25.66,18.09,8,9.82,15.71,6.67,18.64S294,1247.63,287.18,1240.26Z"/><path class="cls-7" d="M480.53,1168.25c.7,13.64,6.17,24.45,12.21,24.14a5.69,5.69,0,0,0,1.35-.28c5.32-1.8,9-12.39,8.31-25-.7-13.65-6.17-24.45-12.21-24.14a4.88,4.88,0,0,0-1.2.22C483.59,1144.84,479.87,1155.52,480.53,1168.25Zm11.09-15.61c4.3-.09,8,8,8.17,18s-3.11,18.26-7.41,18.35-8-8-8.18-18S487.31,1152.73,491.62,1152.64Z"/><ellipse class="cls-3" cx="292.9" cy="1234.96" rx="7.8" ry="18.19" transform="translate(-762.07 529.29) rotate(-42.88)"/><path class="cls-3" d="M492.38,1189c4.3-.09,7.62-8.3,7.41-18.35s-3.87-18.12-8.17-18S484,1161,484.2,1171,488.07,1189.11,492.38,1189Z"/></g></g></svg>