<svg xmlns="http://www.w3.org/2000/svg" viewBox="0 0 728.03 1240.45"><defs><style>.cls-1{fill:#f2d2af;}.cls-2{fill:#d80101;}.cls-3{fill:#040303;}</style></defs><title>Asset 6</title><g id="Layer_2" data-name="Layer 2"><g id="Layer_1-2" data-name="Layer 1"><path class="cls-1" d="M378.92,742.3c7.68-.15,15.34-.22,22.15-3.78,23.49-12.27,17.58-53.08,37.47-71.14,10.88-9.93,28.63-9.76,39.33.36,6.64,6.25,10.06,15.83,9.86,25.25-.25,11.49,9.61,20.16,20,17.09,6.05-1.81,12.21-4,18.18-4.72,18.66-2.19,36.76,12.06,44.19,30.49s5.66,39.85-.46,58.8c-4.13,12.69-9.81,27.76-2.13,38.37,3.25,4.48,8.16,6.89,12.92,9.54a9.6,9.6,0,0,1,4.64,9.51c.32-2,.67-4,1-6,4.62-29.56,7.81-59.81,10.16-90.55,2-25.88,1.24-58.46-.54-88.11a408.13,408.13,0,0,0,37-99.88c3-13.12,5.31-26.8,5.48-40.28a95.61,95.61,0,0,0-4.83-33.06,59.62,59.62,0,0,0-3.82-8.73l0,0,0,0a33.67,33.67,0,0,0-8.22-10.15,22.74,22.74,0,0,0-3.76-2.42l-.28-.14a19,19,0,0,0-13.48-1.54s-.07,0-.08,0a15.13,15.13,0,0,0-2.87,1.16c-4.74,2.56-7.94,7.4-10.77,12.17A247.71,247.71,0,0,0,568.77,530q4.08,10.89,7.6,22c-10,1.21-20.25,2.14-30-.49-10.28-2.79-20.07-10.5-22.58-21.53-1-4.39-.82-9.11-2.55-13.27-3.56-8.56-13.42-11.39-20.16-17.4-11.16-9.95-12.53-28-9.22-43.09S502.25,427,505,411.77c0-.1,0-.17,0-.27-10.46-14.86-21.49-29.21-32.94-43.17-10.16,4.05-18.52,14.31-17.6,26.09,1.22,15.9,15.64,30.07,11.37,45.38-4,14.23-21.81,19.14-27.5,32.71-4.25,10.13-1.06,23.66-8.34,31.6-5.92,6.47-15.95,5.67-23.86,2.4s-15.23-8.53-23.6-9.8a39.69,39.69,0,0,0-10,0c4.35,16.52,8.36,33.08,12.12,49.57,5.22,22.91,10.17,46.07,10.62,69.65.47,24.4-3.89,48.67-9.37,72.38q-6.34,27.48-14.77,54.32c-.92,3-1.87,5.91-2.83,8.86.12-.39.26-.78.38-1.17A11.19,11.19,0,0,1,378.92,742.3ZM500.17,509.54c6.56,4.17,9.95,11,7.56,15.31s-9.64,4.38-16.2.21-9.95-11-7.56-15.31S493.61,505.37,500.17,509.54Zm-25.31-25.16a7.22,7.22,0,0,1,10.33-2.5,8.31,8.31,0,0,1,2.87,10.89,7.22,7.22,0,0,1-10.33,2.51A8.3,8.3,0,0,1,474.86,484.38ZM402.19,677.51c3.93-7.06,10.51-10.62,14.71-8s4.4,10.55.47,17.61-10.52,10.62-14.71,8S398.26,684.57,402.19,677.51Zm-9.41-158.88A4.39,4.39,0,0,1,391,513a3.82,3.82,0,0,1,5.5-1,4.39,4.39,0,0,1,1.77,5.65A3.81,3.81,0,0,1,392.78,518.63Z"/><path class="cls-1" d="M334.07,357.72c-1.64-11-9-20.23-10.71-31.22-3.35-21.07,20.49-40.79,38.72-32.06,12.53,6,24.27,22,36.46,15.3,2.85-1.59,5-4.26,7.47-6.48a28.65,28.65,0,0,1,4.24-3.26c-8.83-9.05-17.76-17.93-26.74-26.78-5.59-5.49-11.22-11-16.95-16.35-.67-.65-1.36-1.28-2.05-1.91a9.3,9.3,0,0,1-1.87,1.3c-11.59,6-23.47-13.63-35.93-10.13a8.74,8.74,0,0,0-1,.34c-5.2,2-8.58,7.53-13.19,11a12.35,12.35,0,0,1-1.71,1.21c-7.23,4.26-16.34,1.8-23.69-2.26S273,246.93,264.91,245c-6-1.44-12.25-.79-18.4-1.38-1.46-.12-2.88-.34-4.31-.6,3.6,3.55,7.19,7.13,10.64,10.74,3.23,3.39,6.43,6.83,9.5,10.35,29,32.91,51.48,71.22,69.52,112.33A38.9,38.9,0,0,0,334.07,357.72ZM381,290.16a6.9,6.9,0,0,1,9.86-2.47,7.93,7.93,0,0,1,2.68,10.44,6.9,6.9,0,0,1-9.86,2.47A7.94,7.94,0,0,1,381,290.16Z"/><path class="cls-1" d="M724.6,906.38c-8.35-17.69-28.93-23.55-47.21-26.73-5.66-1-11.39-1.89-17.14-2.53-16.09-1.86-32.32-1.79-47.51,3.8-13.85,5.1-25.92,14.5-37.36,24.26l-1.1,1c.36-1.5.69-3,1-4.52a18.39,18.39,0,0,1-8,10.78c-7.14,4.34-14.77,8-22.1,11.92-15,8-30.27,18.68-35.89,35.51-6.2,18.52.73,40.68-8.39,57.76-8.6,16-30.81,20.87-45.18,10.59-9.65-6.94-15.48-18.86-25.35-25.47-13.3-8.92-32.77-5-42.12,8.44-1.84,2.65-3.37,6.11-2.18,9.16,1.3,3.38,5.08,4.49,8.2,6,15.94,7.72,18.05,32.56,9.37,48.81s-24.36,26.41-38.31,37.72c-5.73,4.64-11.4,9.75-14.73,16.57-1.71,3.53-2.74,7.43-4.12,11.13-10.3,27.68-42.58,43.41-68.85,33.58s-42.36-43.65-34.23-72.13c2.62-9.26,7.48-18,7.62-27.74.12-6.38-1.82-12.54-3-18.8-2.93-15.72-.82-32.87,7.59-46.17s23.49-22,38.43-20.37c5.73.63,11.65,2.71,16.87-3.26a18,18,0,0,0,3.85-14.17c-1-7-4.89-12.61-9.41-17.59a11.86,11.86,0,0,1-1.47-13.53l7.18-13.09a26,26,0,0,0-4.91-7.84c-6.05-6.68-6.69-17-2.06-24.92l.1-.17a733.44,733.44,0,0,0,61.68-135.68q-.51-3.28-1.18-6.55c-4.11-19.73-15.13-40.25-33.53-45a10.84,10.84,0,0,0-5.81-.22c-3.24,1-5.37,4.22-7,7.36-7.81,14.86-11.06,31.9-13.94,48.67-8.12,47.23-14.1,96.22-7.36,143.31-1.09,1.81-2.19,3.61-3.29,5.42-24.07,39.24-50.11,77.61-64.43,121.83-6.86,21.23-10.88,43.42-13.63,65.7-5.79,47-2,103.42,35.3,129.08,23.17,16,53.88,14.88,79.62,4.27,22.41-9.22,41.86-24.78,60.49-41.12-6.48,4.32-12.84,5.36-16.07,2-4.48-4.66-1.23-16,7.25-25.29s19-13.08,23.47-8.42,1.35,15.52-6.74,24.71l.37-.33c36.06-32.16,71.92-65.36,100-105.56,5.38-7.69,10.44-15.51,15.25-23.41a45.84,45.84,0,0,0,6.55-3.1,113.71,113.71,0,0,1,28.37-11c10.67-2.53,21.64-3.43,32.4-5.42,27.38-5,53.25-16.87,77.75-30.82,14.24-8.1,28.36-17.23,40.35-28.63a110.14,110.14,0,0,0,17-20.26C726.47,941.48,732,922.07,724.6,906.38Z"/><path class="cls-1" d="M206.92,202.92a81.77,81.77,0,0,1,15.49,4.92c4.78,2.08,9.46,4.6,14.58,5.15,10.12,1.08,19.32-5.68,28.82-9.57a56.61,56.61,0,0,1,20.52-4.26l0,0c1.24-.05,2.47-.07,3.69,0q-2.51-1.36-5.11-2.57C269,167.53,252.88,138.29,234.73,111c-14.87-22.47-31.1-43.6-49.61-62.16-3.25-3.29-6.54-6.49-10-9.58a.61.61,0,0,1-.19-.17,256.53,256.53,0,0,0-25.45-20.49c-1.59-1.12-3.19-2.22-4.82-3.29-9.1-6-18.87-11.88-29.12-14.72-9.49-2.6-18.77,4-20.39,14.34a52.57,52.57,0,0,0-.64,8.8c0,1.22,0,2.43.13,3.68a67.88,67.88,0,0,0,3,16.3c4.57,14.71,13.1,27.58,21.52,40.19,9.76,14.57,31.28,36.08,41,50.68-41.8-17.33-98.55-32.7-143.39-31.64a1.08,1.08,0,0,1-.18,0c-6.33.14-14,1.54-16.14,7.93a15.71,15.71,0,0,0-.3,6.76c.16,1.21.35,2.4.59,3.58A45.46,45.46,0,0,0,2.05,126c4.19,13.86,14,25.45,25.7,33.72a80,80,0,0,0,11.8,6.92c19.2,9.19,40.46,11.7,61.12,15.93.78.15,1.58.32,2.34.5h.07a477.47,477.47,0,0,1,68.08,20.13A83.73,83.73,0,0,1,206.92,202.92Z"/><path class="cls-2" d="M304.1,894.52c-4.63,7.88-4,18.24,2.06,24.92a26,26,0,0,1,4.91,7.84l-7.18,13.09a11.86,11.86,0,0,0,1.47,13.53c4.52,5,8.37,10.59,9.41,17.59a18,18,0,0,1-3.85,14.17c-5.22,6-11.14,3.89-16.87,3.26-14.94-1.67-30,7.09-38.43,20.37s-10.52,30.45-7.59,46.17c1.2,6.26,3.14,12.42,3,18.8-.14,9.69-5,18.48-7.62,27.74-8.13,28.48,7.93,62.29,34.23,72.13s58.55-5.9,68.85-33.58c1.38-3.7,2.41-7.6,4.12-11.13,3.33-6.82,9-11.93,14.73-16.57,13.95-11.31,29.63-21.5,38.31-37.72s6.57-41.09-9.37-48.81c-3.12-1.52-6.9-2.63-8.2-6-1.19-3,.34-6.51,2.18-9.16,9.35-13.46,28.82-17.36,42.12-8.44,9.87,6.61,15.7,18.53,25.35,25.47,14.37,10.28,36.58,5.45,45.18-10.59,9.12-17.08,2.19-39.24,8.39-57.76,5.62-16.83,20.94-27.53,35.89-35.51,7.33-3.91,15-7.58,22.1-11.92a18.39,18.39,0,0,0,8-10.78c.09-.31.19-.61.26-.92.4-1.73.76-3.46,1.15-5.19.32-1.46.65-2.92,1-4.38q1.34-6.17,2.56-12.37c.11-.56.23-1.1.34-1.66q1.36-7,2.61-14.13c.25-1.38.47-2.76.71-4.14.36-2.09.73-4.19,1.08-6.29,0-.16,0-.31,0-.47a9.6,9.6,0,0,0-4.64-9.51c-4.76-2.65-9.67-5.06-12.92-9.54-7.68-10.61-2-25.68,2.13-38.37,6.12-18.95,7.86-40.38.46-58.8s-25.53-32.68-44.19-30.49c-6,.71-12.13,2.91-18.18,4.72-10.36,3.07-20.22-5.6-20-17.09.2-9.42-3.22-19-9.86-25.25-10.7-10.12-28.45-10.29-39.33-.36-19.89,18.06-14,58.87-37.47,71.14-6.81,3.56-14.47,3.63-22.15,3.78a11.19,11.19,0,0,0-10.25,8c-.12.39-.26.78-.38,1.17l-1.44,4.32c-.32,1-.65,1.91-1,2.87A733.44,733.44,0,0,1,304.2,894.35Z"/><path class="cls-2" d="M491.89,456.16c-3.31,15.12-1.94,33.14,9.22,43.09,6.74,6,16.6,8.84,20.16,17.4,1.73,4.16,1.53,8.88,2.55,13.27,2.51,11,12.3,18.74,22.58,21.53,9.72,2.63,20,1.7,30,.49q-3.51-11.09-7.6-22a511.63,511.63,0,0,0-48.71-96.16q-7.3-11.35-15-22.31c0,.1,0,.17,0,.27C502.25,427,495.2,441,491.89,456.16Z"/><path class="cls-2" d="M382.56,496.71c8.37,1.27,15.7,6.54,23.6,9.8s17.94,4.07,23.86-2.4c7.28-7.94,4.09-21.47,8.34-31.6,5.69-13.57,23.51-18.48,27.5-32.71,4.27-15.31-10.15-29.48-11.37-45.38-.92-11.78,7.44-22,17.6-26.09-19.55-23.77-40.38-46.4-61.84-68.33a28.65,28.65,0,0,0-4.24,3.26c-2.46,2.22-4.62,4.89-7.47,6.48-12.19,6.73-23.93-9.29-36.46-15.3-18.23-8.73-42.07,11-38.72,32.06,1.71,11,9.07,20.25,10.71,31.22a38.9,38.9,0,0,1-2.21,18.69c16.82,38.3,29.81,79.1,40.66,120.29A39.69,39.69,0,0,1,382.56,496.71Z"/><path class="cls-3" d="M405.76,1159.75c-4.48-4.66-15-.89-23.47,8.42s-11.73,20.63-7.25,25.29c3.23,3.36,9.59,2.32,16.07-2a40.37,40.37,0,0,0,7.4-6.42c.18-.19.34-.39.51-.58C407.11,1175.27,410.15,1164.32,405.76,1159.75Z"/><path class="cls-2" d="M484,509.75c-2.39,4.28,1,11.14,7.56,15.31s13.82,4.08,16.2-.21-1-11.14-7.56-15.31S486.35,505.47,484,509.75Z"/><path class="cls-2" d="M477.73,495.28a7.22,7.22,0,0,0,10.33-2.51,8.31,8.31,0,0,0-2.87-10.89,7.22,7.22,0,0,0-10.33,2.5A8.3,8.3,0,0,0,477.73,495.28Z"/><path class="cls-2" d="M402.66,695.12c4.19,2.66,10.78-.9,14.71-8s3.72-14.95-.47-17.61-10.78.9-14.71,8S398.47,692.46,402.66,695.12Z"/><path class="cls-2" d="M398.28,517.6a4.39,4.39,0,0,0-1.77-5.65,3.82,3.82,0,0,0-5.5,1,4.39,4.39,0,0,0,1.77,5.65A3.81,3.81,0,0,0,398.28,517.6Z"/><path class="cls-2" d="M383.7,300.6a6.9,6.9,0,0,0,9.86-2.47,7.93,7.93,0,0,0-2.68-10.44,6.9,6.9,0,0,0-9.86,2.47A7.94,7.94,0,0,0,383.7,300.6Z"/><path class="cls-2" d="M264.91,245c8.06,2,14.89,7.48,22.23,11.5s16.46,6.52,23.69,2.26a12.35,12.35,0,0,0,1.71-1.21c4.61-3.52,8-9.09,13.19-11a8.74,8.74,0,0,1,1-.34c12.46-3.5,24.34,16.12,35.93,10.13a9.3,9.3,0,0,0,1.87-1.3q-7-6.61-14.21-13c-16.12-14.26-33.05-27.39-51.47-38-1.92-1.11-3.86-2.19-5.84-3.26-1-.5-1.95-1.05-2.94-1.52-1.22,0-2.45,0-3.69,0l0,0a56.61,56.61,0,0,0-20.52,4.26c-9.5,3.89-18.7,10.65-28.82,9.57-5.12-.55-9.8-3.07-14.58-5.15a81.77,81.77,0,0,0-15.49-4.92,83.73,83.73,0,0,0-35.76.23c18.09,6.72,36,14.29,53.69,22.21q3.42,3.6,6.87,7.11c3.46,3.54,7,7,10.48,10.52,1.43.26,2.85.48,4.31.6C252.66,244.18,258.92,243.53,264.91,245Z"/></g></g></svg>