<svg xmlns="http://www.w3.org/2000/svg" viewBox="0 0 590.11 1321.67"><defs><style>.cls-1{fill:#f2d2af;}.cls-2{fill:#f91c00;}.cls-3{fill:#1e0e00;}</style></defs><title>Asset 9</title><g id="Layer_2" data-name="Layer 2"><g id="Layer_1-2" data-name="Layer 1"><path class="cls-1" d="M429.81,102.78a332,332,0,0,1-6.78,55.5,129,129,0,0,0,12.53-36.8,103.14,103.14,0,0,1-3.1,37.75c15.66-31.3,15.61-76.94,20.49-102.51a287.88,287.88,0,0,1-10.89,99,275.08,275.08,0,0,1,23.23-37.16q-8,19.14-16.08,38.22c15.41-32.86,42.32-58.71,68.64-83.72C500.6,105,466.94,126.9,454.49,161a127.32,127.32,0,0,1,42.09-38.86c-.14.16-.25.33-.39.5,8.77-8.24,17.95-16.22,27.72-24.34A373.2,373.2,0,0,0,588,29.7,11.24,11.24,0,0,0,583.87,13c-19.23-9.35-45.16-4.11-62.69,9.6-21,16.41-32.89,41.59-44,65.85,7.51-18.87,12.81-52.67,13.06-77.46A10.82,10.82,0,0,0,475,1C459,8.15,442.62,24.53,433.63,36.71,426.1,47,424.65,59.35,425,72.3,429.78,81.23,430.17,92.42,429.81,102.78Z"/><path class="cls-1" d="M436.33,190.63c-8.54,5.05-17.8,5-25.11,11.7s-10.25,19.9-2.4,26c3.77,2.9,8.65,3.21,13.54,3.46,5.54-16.48,12.07-32.24,22.5-48.82A32,32,0,0,1,436.33,190.63Z"/><path class="cls-1" d="M393.1,643.08a24.81,24.81,0,0,0-4.3-2c-3.88-1-7.79,2.06-9.38,5.75s-1.48,7.76-1.73,11.75c-.84,13.29-8.21,28.11-21.38,30.06S330.92,678,330.13,664.89a15.26,15.26,0,0,0-3.74-9.69c-7.19-7.59-16.7,1.11-21.44,6.75a15.3,15.3,0,0,1-8.31,5.24c-9.29,2-13.11-6.6-13.5-14-.3-5.77.62-11.86-1.76-17.16-5.41-11.9-23.81-12.57-30-24-5.67-10.47,1.87-22.75,5.94-33.94,7.79-21.33,2.6-45.34,7.79-67.47,4.05-17.23,14.27-35.43,6.62-51.4-1.29-2.7-3.05-5.16-4.22-7.9-4.6-10.8.78-23.19,7.4-32.88s14.85-19,16.61-30.65c1.81-12-2.6-27.19,7.2-34.31,3.38-2.46,7.76-3.13,11.89-2.74A25.75,25.75,0,0,1,332.5,370.1c1.23,5.25.69,10.77,1.56,16.11s3.71,11,8.85,12.61c4.66,1.48,9.8-.72,14.6.14,5.69,1,9.91,6.23,11.53,11.78a31,31,0,0,1,1.06,8.46,6,6,0,0,0,9.91,4.43,75.66,75.66,0,0,0,5.89-6.3c3.46-4,8.71-7.73,13.48-7.42.64-36.82,2.43-72.58,6.09-103.1-10-1.78-19.21-9.46-21.05-19.56-1.7-9.33,1.09-21.28-6.78-26.52-7.18-4.75-17.26,1.48-20.35,9.46s-1.82,16.94-2.21,25.51c-.31,7.35-2,14.86-6.28,20.83S337.38,326.75,330,326.1c-11.72-1-23.17-13.48-33.25-7.37-3.51,2.13-5.47,6-7.59,9.58-2.65,4.44-6,8.77-10.64,11.05a13.78,13.78,0,0,1-7.11,1.37c-27.84,47.4-49.64,98.71-66,151.69a27.3,27.3,0,0,1,5.27,2.63c9.88,6.34,14.77,20.49,8.93,30.71-3.15,5.47-8.73,9.18-12.31,14.4s-4.18,13.71,1.37,16.78c3.1,1.67,6.87,1,10.39,1.09a22.79,22.79,0,0,1,17.19,37c-3,3.8-7.48,7.09-7.87,11.92-.28,3.71,2,7.06,4,10.22,2.57,4.1,4.89,8.65,4.69,13.51s-3.63,9.85-8.46,10.22c-8.74.69-13.59-12.68-22.36-12.23-6.56.31-9.85,8.12-10.55,14.65s-.75,14.13-5.84,18.29-12.61,2.65-19.45,3q-4,35-6,70.27c6.12.16,12,2.9,14.66,8.31,4,8.1-.5,17.7-.06,26.69a24.56,24.56,0,0,0,12.4,19.85c5.72,2.62,12.42-1.12,16.69-5.75s7.57-10.39,13-13.51A17.52,17.52,0,0,1,243,797.4c-2.48,2.76-6,5-6.87,8.65-1.14,5,3.44,9.41,7.85,12s9.6,5.23,11,10.14c.76,2.59.25,5.36-.33,8-2.4,10.19-6.9,20.18-14.63,27.19s-19.15,10.5-29,7c-6.45-2.26-13.46-7.26-19.35-3.77-4.46,2.65-5.22,8.65-6,13.79s-3.24,11.19-8.4,11.78c-7.65.84-9.83-9.88-15.21-15.58.27,17,.73,34.06,1.28,51.09a41.53,41.53,0,0,0-18.26-12.9c-10.55-3.71-22.36-2.82-33.52-1.12A251.16,251.16,0,0,0,38.8,936.31a.22.22,0,0,1-.11,0,232.39,232.39,0,0,0-23.48,13.12c-4.33,2.77-8.65,5.73-11.53,9.77C-3.6,969.53.83,983.6,9.07,993.31a61.6,61.6,0,0,0,8,7.79c13.4,11,31.33,17.47,49,22.14a376.64,376.64,0,0,0,102.4,12.33c-.68-8-1.26-16-1.63-23.89-.33-7.37-.69-14.77-1-22.14,5.08.36,10.11,3,14.07,6.37a39.7,39.7,0,0,1,4.67,4.68,41.74,41.74,0,0,1,9.59,20.83c1.43,9.27.37,20.43,7.79,26.19,9.44,7.28,26.69.44,32.89,10.63,2.82,4.61,1.53,10.5,1.95,15.91a25.3,25.3,0,0,0,19.18,22.11c4.47,1,9.13.73,13.54,1.84,10.69,2.71,18.31,14.27,16.55,25.16s-12.59,19.51-23.59,18.73c-2.59-.17-5.36-.78-7.67.36-3.16,1.56-4.39,5.81-7.65,7-2.21.81-4.69,0-6.7-1.22-12.73-7.71-12.42-28.51-25.43-35.71a9.66,9.66,0,0,0-7-1.28c-5.42,1.45-6.59,8.48-6.87,14.1s-2,12.67-7.56,13.51a6.77,6.77,0,0,1-2.78-.2,17.57,17.57,0,0,0-5.17-3.25c-.9-.83-1.77-1.73-2.63-2.61l.42,2a9.12,9.12,0,0,0-4.53.29c-7.33,2.49-9.9,14.43-5.73,26.66s13.47,20.14,20.8,17.65l.36-.16c4.86,17.46,10.19,34.07,15.89,49.3a9.15,9.15,0,0,1,1.57-1.81c6.53-5.89,16.63-1.71,25.15.44,8.71,2.18,19.76,3.16,23.06,11.5,2.59,6.59-1.46,14.86,2.4,20.83,4.07,6.28,13.37,5.22,20.54,7.34a5.16,5.16,0,0,1,2.63,1.54,4.71,4.71,0,0,1,.78,2.56,18.63,18.63,0,0,1-8.43,16.73c-3.52,2.2-7.79,3.23-10.89,6-5.78,5.22-5.11,13.84-3,21.69a54.29,54.29,0,0,0,23.08,6.28c29.65,1.76,46.06-14.29,57.15-38.38q8.21-17.85,14.88-36a11.61,11.61,0,0,1-6.79-.3c-5.89-2.13-8.93-8.77-9.68-15s.05-12.59-1.12-18.75c-16.33-1.76-29.9,20.49-45.33,14.9-4.11-1.51-7.26-4.74-10.25-7.9-4.41-4.63-8.93-9.46-10.89-15.52s-.58-13.73,4.86-17c8-4.85,20.1,1.51,26.88-4.88,3.49-3.3,3.94-8.68,6.51-12.73,3.54-5.58,10.47-7.79,16.91-9.21s13.35-2.68,18.07-7.29,5.33-13.9-.54-16.89c-2.73-1.39-6-1.06-9-1.81-8-2-11.67-13.29-6.51-19.66,2.4-2.95,6.42-5.33,6.34-9.15-.06-2.79-2.35-4.91-3.77-7.29-3.63-6-1.54-14.07,2.68-19.71s10.27-9.57,15.58-14.18a13.64,13.64,0,0,0,4.13-5.13c1.56-4.3-1.31-9.13-5.17-11.53-5.55-3.46-12.56-3.3-19.06-2.6s-13.23,1.76-19.49-.22-11.67-8.29-10.16-14.66c.89-3.79,4.08-7.7,2.18-11.11-1.37-2.45-4.55-3-7.2-3.91-12-4-16.39-21.71-7.71-30.87,5.84-6.14,16.7-10.66,14.88-19-.61-2.77-2.68-5-4.77-6.93-6.76-6.39-14.77-12.25-17.81-21-4.3-12.39,3.65-26.66,15.32-32.66s25.77-5.22,38.39-1.62c6.42,1.84,14,4.16,19.2.06,3.88-3.07,5-8.8,9.07-11.62,8.66-6,21.61,5.78,30.54.2,4.08-2.57,5.48-8,5.22-12.76s-1.78-9.49-2-14.32c-.55-11.11,6.9-21.8,16.95-26.27q.08-17.7-.17-35.39c-.81-51.23-5.78-108.23-9.24-160.93C402,644.51,397.18,645,393.1,643.08Zm-36-279.37c4.24,0,7.67,4.84,7.67,10.81s-3.43,10.82-7.67,10.82-7.68-4.84-7.68-10.82S352.88,363.71,357.12,363.71Zm-159,404.07c-4.28,0-7.75-5.94-7.75-13.26s3.47-13.26,7.75-13.26,7.74,5.94,7.74,13.26S202.35,767.78,198.07,767.78Zm48-253.55c-2.71-2.52-2.64-6.85-1.6-10.4a26.13,26.13,0,0,1,11.27-14.77,5.88,5.88,0,0,1,2.64-1,4.86,4.86,0,0,1,3.9,2.18c3.12,4.15,2,10.06.06,14.9-1.35,3.42-3.1,6.88-6.08,9S248.76,516.74,246.06,514.23Zm-23.15,529c-7,0-12.77-6.35-12.77-14.19s5.72-14.18,12.77-14.18,12.78,6.35,12.78,14.18S230,1043.2,222.91,1043.2Zm30.91,26.43c-3.09,0-5.59-3.05-5.59-6.81s2.5-6.81,5.59-6.81,5.59,3,5.59,6.81S256.91,1069.63,253.82,1069.63Zm-63.36,105c-3.77,1.11-8.68-4.24-11-12s-1-14.86,2.73-16,8.68,4.23,10.95,12S194.24,1173.56,190.46,1174.68ZM345.6,892.27c-6,0-10.81-5.68-10.81-12.69s4.84-12.7,10.81-12.7,10.82,5.69,10.82,12.7S351.58,892.27,345.6,892.27Zm56.88-59.64c0,3.44-2.5,6.22-5.58,6.22s-5.59-2.78-5.59-6.22,2.5-6.23,5.59-6.23S402.48,829.19,402.48,832.63Z"/><path class="cls-1" d="M427.37,1043.82A255.39,255.39,0,0,0,550.65,1032c11.41-4.06,24.49-11.84,23.86-23.94-.24-4.66-2.62-8.92-5.14-12.85-30.72-47.88-94.48-71.72-149.07-55.73-2.81.83-5.64,1.79-8.41,2.9q-3,47.34-8.63,94.47C410.58,1040.64,419.15,1042.57,427.37,1043.82Z"/><path class="cls-2" d="M267,1293.57c3.1-2.77,7.37-3.8,10.89-6a18.63,18.63,0,0,0,8.43-16.73,4.71,4.71,0,0,0-.78-2.56,5.16,5.16,0,0,0-2.63-1.54c-7.17-2.12-16.47-1.06-20.54-7.34-3.86-6,.19-14.24-2.4-20.83-3.3-8.34-14.35-9.32-23.06-11.5-8.52-2.15-18.62-6.33-25.15-.44a9.15,9.15,0,0,0-1.57,1.81c4.14,11.06,8.46,21.38,12.93,30.82,11.36,24,21.63,45.67,40.84,56C261.84,1307.41,261.17,1298.79,267,1293.57Z"/><path class="cls-2" d="M398.54,865.12c.23,4.83,1.76,9.49,2,14.32s-1.14,10.19-5.22,12.76c-8.93,5.58-21.88-6.2-30.54-.2-4,2.82-5.19,8.55-9.07,11.62-5.25,4.1-12.78,1.78-19.2-.06-12.62-3.6-26.72-4.41-38.39,1.62s-19.62,20.27-15.32,32.66c3,8.77,11.05,14.63,17.81,21,2.09,2,4.16,4.16,4.77,6.93,1.82,8.29-9,12.81-14.88,19-8.68,9.16-4.24,26.85,7.71,30.87,2.65.9,5.83,1.46,7.2,3.91,1.9,3.41-1.29,7.32-2.18,11.11-1.51,6.37,3.94,12.65,10.16,14.66s13,.89,19.49.22,13.51-.86,19.06,2.6c3.86,2.4,6.73,7.23,5.17,11.53a13.64,13.64,0,0,1-4.13,5.13c-5.31,4.61-11.34,8.57-15.58,14.18s-6.31,13.68-2.68,19.71c1.42,2.38,3.71,4.5,3.77,7.29.08,3.82-3.94,6.2-6.34,9.15-5.16,6.37-1.45,17.62,6.51,19.66,3,.75,6.25.42,9,1.81,5.87,3,5.25,12.31.54,16.89s-11.65,5.86-18.07,7.29-13.37,3.63-16.91,9.21c-2.57,4-3,9.43-6.51,12.73-6.78,6.39-18.9,0-26.88,4.88-5.44,3.3-6.84,11-4.86,17s6.48,10.89,10.89,15.52c3,3.16,6.14,6.39,10.25,7.9,15.43,5.59,29-16.66,45.33-14.9,1.17,6.16.33,12.53,1.12,18.75s3.79,12.87,9.68,15a11.61,11.61,0,0,0,6.79.3,605.77,605.77,0,0,0,20.17-66.71,7.68,7.68,0,0,1-.82-.11c-6.82-1.61-9.95-13.1-7-25.68s10.76-21.32,17.54-19.9c4.95-26.76,8.85-53.91,12.36-81.44.7-5.48,1.33-11,2-16.44q5.58-47.1,8.63-94.47,3.32-51.72,3.6-103.57C405.44,843.32,398,854,398.54,865.12Z"/><path class="cls-2" d="M190.73,1138.58a6.77,6.77,0,0,0,2.78.2c5.55-.84,7.28-7.9,7.56-13.51s1.45-12.65,6.87-14.1a9.66,9.66,0,0,1,7,1.28c13,7.2,12.7,28,25.43,35.71,2,1.22,4.49,2,6.7,1.22,3.26-1.22,4.49-5.47,7.65-7,2.31-1.14,5.08-.53,7.67-.36,11,.78,21.86-7.85,23.59-18.73s-5.86-22.45-16.55-25.16c-4.41-1.11-9.07-.86-13.54-1.84a25.3,25.3,0,0,1-19.18-22.11c-.42-5.41.87-11.3-1.95-15.91-6.2-10.19-23.45-3.35-32.89-10.63-7.42-5.76-6.36-16.92-7.79-26.19a41.74,41.74,0,0,0-9.59-20.83,39.7,39.7,0,0,0-4.67-4.68c-4-3.35-9-6-14.07-6.37.34,7.37.7,14.77,1,22.14.37,7.84,1,15.84,1.63,23.89a788.81,788.81,0,0,0,14.54,97.15c.86.88,1.73,1.78,2.63,2.61A17.57,17.57,0,0,1,190.73,1138.58Z"/><path class="cls-2" d="M177.26,892.23c5.16-.59,7.59-6.65,8.4-11.78s1.54-11.14,6-13.79c5.89-3.49,12.9,1.51,19.35,3.77,9.88,3.46,21.27,0,29-7s12.23-17,14.63-27.19c.58-2.62,1.09-5.39.33-8-1.42-4.91-6.61-7.51-11-10.14s-9-7-7.85-12c.84-3.63,4.39-5.89,6.87-8.65a17.52,17.52,0,0,0-21.8-26.88c-5.47,3.12-8.77,8.9-13,13.51s-11,8.37-16.69,5.75a24.56,24.56,0,0,1-12.4-19.85c-.44-9,4.05-18.59.06-26.69-2.65-5.41-8.54-8.15-14.66-8.31-2.76,47.09-3.23,94.4-2.42,141.72C167.43,882.35,169.61,893.07,177.26,892.23Z"/><path class="cls-2" d="M189.9,661.62c5.09-4.16,5.14-11.73,5.84-18.29s4-14.34,10.55-14.65c8.77-.45,13.62,12.92,22.36,12.23,4.83-.37,8.29-5.39,8.46-10.22s-2.12-9.41-4.69-13.51c-2-3.16-4.3-6.51-4-10.22.39-4.83,4.83-8.12,7.87-11.92a22.79,22.79,0,0,0-17.19-37c-3.52-.09-7.29.58-10.39-1.09-5.55-3.07-4.94-11.56-1.37-16.78s9.16-8.93,12.31-14.4c5.84-10.22,1-24.37-8.93-30.71a27.3,27.3,0,0,0-5.27-2.63,860.6,860.6,0,0,0-21.89,87c-5.55,28.28-9.85,56.69-13.09,85.25C177.29,664.27,184.71,665.89,189.9,661.62Z"/><path class="cls-2" d="M385.9,417.33a75.66,75.66,0,0,1-5.89,6.3,6,6,0,0,1-9.91-4.43,31,31,0,0,0-1.06-8.46c-1.62-5.55-5.84-10.77-11.53-11.78-4.8-.86-9.94,1.34-14.6-.14-5.14-1.64-8-7.25-8.85-12.61s-.33-10.86-1.56-16.11a25.75,25.75,0,0,0-21.92-19.35c-4.13-.39-8.51.28-11.89,2.74-9.8,7.12-5.39,22.33-7.2,34.31-1.76,11.61-10,21-16.61,30.65s-12,22.08-7.4,32.88c1.17,2.74,2.93,5.2,4.22,7.9,7.65,16-2.57,34.17-6.62,51.4-5.19,22.13,0,46.14-7.79,67.47-4.07,11.19-11.61,23.47-5.94,33.94,6.22,11.47,24.62,12.14,30,24,2.38,5.3,1.46,11.39,1.76,17.16.39,7.35,4.21,16,13.5,14A15.3,15.3,0,0,0,305,662c4.74-5.64,14.25-14.34,21.44-6.75a15.26,15.26,0,0,1,3.74,9.69c.79,13.09,13.14,25.71,26.18,23.72s20.54-16.77,21.38-30.06c.25-4,.17-8.1,1.73-11.75s5.5-6.73,9.38-5.75a24.81,24.81,0,0,1,4.3,2c4.08,1.93,8.88,1.43,13-.55q-.84-12.24-1.51-24.1c-2.62-46.84-6.53-130-5.19-208.52C394.61,409.6,389.36,413.37,385.9,417.33Z"/><path class="cls-2" d="M278.56,339.36c4.67-2.28,8-6.61,10.64-11.05,2.12-3.55,4.08-7.45,7.59-9.58,10.08-6.11,21.53,6.37,33.25,7.37,7.34.65,14.52-3.57,18.76-9.57s6-13.48,6.28-20.83c.39-8.57-.92-17.5,2.21-25.51s13.17-14.21,20.35-9.46c7.87,5.24,5.08,17.19,6.78,26.52,1.84,10.1,11,17.78,21.05,19.56,2.48-21,5.83-39.44,10.27-54.07,2.18-7.2,4.3-14.15,6.62-21-4.89-.25-9.77-.56-13.54-3.46-7.85-6.06-4.92-19.26,2.4-26s16.57-6.65,25.11-11.7a32,32,0,0,0,8.53-7.7,33,33,0,0,0,3.31-5.08c1.65-2.46,3.39-4.95,5.26-7.46a346.32,346.32,0,0,1,42.76-47.76c.14-.17.25-.34.39-.5A127.32,127.32,0,0,0,454.49,161c12.45-34.09,46.11-56,63.36-87.91-26.32,25-53.23,50.86-68.64,83.72q8-19.1,16.08-38.22a275.08,275.08,0,0,0-23.23,37.16,287.88,287.88,0,0,0,10.89-99c-4.88,25.57-4.83,71.21-20.49,102.51a103.14,103.14,0,0,0,3.1-37.75A129,129,0,0,1,423,158.28a332,332,0,0,0,6.78-55.5c.36-10.36,0-21.55-4.83-30.48.25,10.77,1.76,21.91,1.95,32.52A130.56,130.56,0,0,1,415,161q-1.39,3.09-2.95,6.09c-.44.85-.92,1.68-1.38,2.52-.62,1.15-1.23,2.3-1.89,3.44-1,1.75-2.09,3.47-3.19,5.17-.24.38-.49.75-.74,1.12q-1.37,2.06-2.79,4.05l-.86,1.18a119.19,119.19,0,0,1-7.65,9.37c-.35.4-.72.78-1.08,1.17-1,1.1-2.07,2.18-3.13,3.24l-1.23,1.22c-1.42,1.37-2.86,2.72-4.34,4-45,39.17-82.21,85.84-112.33,137.15A13.78,13.78,0,0,0,278.56,339.36Z"/><path class="cls-2" d="M256.25,514.15c3-2.15,4.73-5.61,6.08-9,1.89-4.84,3.06-10.75-.06-14.9a4.86,4.86,0,0,0-3.9-2.18,5.88,5.88,0,0,0-2.64,1,26.13,26.13,0,0,0-11.27,14.77c-1,3.55-1.11,7.88,1.6,10.4S253.27,516.31,256.25,514.15Z"/><ellipse class="cls-2" cx="222.91" cy="1029.01" rx="12.77" ry="14.18"/><path class="cls-2" d="M253.82,1056c-3.09,0-5.59,3-5.59,6.81s2.5,6.81,5.59,6.81,5.59-3.05,5.59-6.81S256.91,1056,253.82,1056Z"/><path class="cls-2" d="M345.6,866.88c-6,0-10.81,5.69-10.81,12.7s4.84,12.69,10.81,12.69,10.82-5.68,10.82-12.69S351.58,866.88,345.6,866.88Z"/><path class="cls-2" d="M391.31,832.63c0,3.44,2.5,6.22,5.59,6.22s5.58-2.78,5.58-6.22-2.5-6.23-5.58-6.23S391.31,829.19,391.31,832.63Z"/><path class="cls-2" d="M198.07,741.26c-4.28,0-7.75,5.94-7.75,13.26s3.47,13.26,7.75,13.26,7.74-5.94,7.74-13.26S202.35,741.26,198.07,741.26Z"/><path class="cls-2" d="M357.12,385.34c4.24,0,7.67-4.84,7.67-10.82s-3.43-10.81-7.67-10.81-7.68,4.84-7.68,10.81S352.88,385.34,357.12,385.34Z"/><path class="cls-1" d="M371.38,1154.67c-3,12.58.17,24.07,7,25.68a7.68,7.68,0,0,0,.82.11c6.63.75,14.05-7.9,16.89-20,3-12.58-.17-24.07-7-25.68l-.17,0C382.14,1133.35,374.31,1142.19,371.38,1154.67Zm19.07,8.41c-2.67,7.59-7.85,12.67-11.57,11.36s-4.55-8.52-1.87-16.1,7.85-12.67,11.57-11.36S393.13,1155.5,390.45,1163.08Z"/><path class="cls-3" d="M193.19,1158.7c-2.27-7.72-7.17-13.07-10.95-12s-5,8.26-2.73,16,7.18,13.07,11,12S195.46,1166.41,193.19,1158.7Z"/><ellipse class="cls-3" cx="383.73" cy="1160.71" rx="14.56" ry="7.13" transform="translate(-838.52 1136.19) rotate(-70.56)"/></g></g></svg>