<svg xmlns="http://www.w3.org/2000/svg" viewBox="0 0 510.79 1299.52"><defs><style>.cls-1{fill:#010101;}.cls-2{fill:#f2d2af;}.cls-3{fill:#000102;}.cls-4{fill:#010203;}.cls-5{fill:#f91c00;}</style></defs><title>Asset 7</title><g id="Layer_2" data-name="Layer 2"><g id="Layer_1-2" data-name="Layer 1"><path class="cls-1" d="M41.15,983.84c22.13,12.58,66.91,24.51,92,27.8-26.57.5-77.42-14.33-102.64-22.89,9.31,12,88.4,31.93,113.42,31.74a30.41,30.41,0,0,1,3.66.16c-1.58-15-3-31.25-4.23-48.68-12.09-16.05-28.79-30.13-49.86-41.86a102.32,102.32,0,0,1,49.29,33.2c-.17-2.63-.33-5.27-.48-7.94l.69,1.2c5,8.63,10.77,17.44,19.45,22.22s21.16,3.87,26.61-4.49c3.3-5.08,3.42-11.59,5.64-17.24s8.78-10.72,13.86-7.52a7.39,7.39,0,0,1,1.26,1c5.53,5.54,2.4,19.44,10.33,20.59,2.5.37,5.15-1,7.49,0,2.88,1.2,3.35,5,3.72,8.2.83,7.41,3.65,14.84,9.1,19.77s13.88,6.87,20.35,3.39,9.54-12.88,5.33-19c-3.37-4.89-10.83-8.61-9-14.3.56-1.74,1.94-3.05,3.19-4.37a41.83,41.83,0,0,0,11.19-26.45,40.76,40.76,0,0,0-.47-8.76,12.23,12.23,0,0,0-2.52-6.3c-2.22-2.47-5.75-3-8.8-4.3-10.72-4.52-14.16-21-6.15-29.53,4.92-5.27,12.52-7.22,17.56-12.39a19.79,19.79,0,0,0,3.86-21c-1.78-4.13-5.08-8.18-4.14-12.6,1.57-7.47,14.35-11,11.62-18.19-2.63-6.89-14.16-1.6-19.77-6.3-3.84-3.2-2.94-9.45-.74-14s5.45-8.88,5.34-13.94c-.4-16.12-31.12-16.81-31.17-32.93,0-6.59,5.83-11.73,11.85-14.13s12.66-3.08,18.48-6c12.29-6.11,18.25-21,18.6-34.86.28-10.63-2.84-22.43-11.76-28-8.71-5.4-19.75-3.17-29.94-3.26s-22.52-5.2-23.09-15.54c-.42-7.27,5.38-13.28,11.31-17.33s12.78-7.38,16.57-13.54a19.75,19.75,0,0,0-3.05-23.79c-7.53-7.14-20-7.31-26.59-15.4-3.07-3.85-4.3-8.91-6.95-13.07-7.6-11.92-25.39-13-37.54-6a30.71,30.71,0,0,0-2.91,1.88c-4.57,20.31-8.73,40.71-12.22,61.21-17.58,103.43-21,204.37-18.24,287.8-12.19-5.87-27.09-7.72-40.8-7.25A189.86,189.86,0,0,0,43,921.78a163.66,163.66,0,0,1,68.56,41.58C92.21,950.1,40.64,925.6,31,926.5q-4.89,2.12-9.63,4.49c-5.87,2.94-12,6.75-16.15,11.73C9.48,957.65,27.34,976,41.15,983.84Z"/><path class="cls-1" d="M510.71,936.14a23.41,23.41,0,0,0-3.14-10.69c-28,18.19-67,34.79-97.43,41.84,32.57-12.79,57.52-21.84,89.39-48.71a42.48,42.48,0,0,0-11.91-2.82l-2.64-.28q-21.93-2.26-43.89-4.49c-15-1.53-30.44-3-44.79,1.64a55.53,55.53,0,0,0-7.84,3.25q-.16,3.64-.31,7.29Q386,973.56,383.93,1024c.61-.35,1.23-.67,1.84-1,29.2-14.46,68.47-23.88,86.74-44.69A205.66,205.66,0,0,1,413,994.54a290.43,290.43,0,0,0,61.72-24.62c8.62-4.65,29.27-17.06,35.39-24.82A35.3,35.3,0,0,0,510.71,936.14Z"/><path class="cls-2" d="M111.58,963.36A163.66,163.66,0,0,0,43,921.78c-4.06,1.43-8.08,3-12,4.72C40.64,925.6,92.21,950.1,111.58,963.36Z"/><path class="cls-2" d="M474.75,969.92A290.43,290.43,0,0,1,413,994.54a205.66,205.66,0,0,0,59.48-16.25C454.24,999.1,415,1008.52,385.77,1023c-.61.3-1.23.62-1.84,1q2.1-50.38,4.22-100.78.15-3.64.31-7.29c1.34-31.88,2.51-63.81,1.35-95.68a22.27,22.27,0,0,1-16.51-3.81c-7.53-5.62-10.33-15.56-13.56-24.49s-8.5-18.53-17.63-20.69c-2.88-.68-6-.52-8.75-1.53C325.69,767,323.2,757.22,323.15,749s1.08-17.23-3.4-24.12c-5.42-8.32-16.67-10-24.5-16.06C287.76,703,283.81,693.49,282.7,684s.28-19,1.64-28.49c.67-4.63,1.3-9.62-.69-13.85-1.64-3.48-4.83-5.95-6.95-9.14-5-7.55-3.31-17.85.57-26,4.67-9.87,12.85-18.62,23.33-21.16,10.77-2.61,23,1.39,32.6-4.25-1.64-9.15-2.38-20.64,5.33-25.65,2.36-1.53,5.13-2.12,7.86-2.82Q336.55,505,326,457.45a38.38,38.38,0,0,1-11.48,1.5c-11.71-.07-24.92-5.59-28-17.06-1.45-5.39-.44-11.05-.3-16.62s-1-11.76-5.4-15.07c-2.34-1.76-5.39-2.52-7.44-4.66-2.34-2.44-2.82-6.13-2.94-9.54-.25-7.55,1.23-16.15,7.44-20.26,5.57-3.65,12.82-2.38,19.31-3.58a23.56,23.56,0,0,0,8.71-3.59c-16.88-73-34.58-145.87-52.43-218.65-1.64-4.09-3.4-8.14-5.32-12.11-3.6-7.5-7.71-14.79-10.69-22.59s-4.78-16.24-6.75-24.5A585,585,0,0,0,207.61,16.3q3.84,37.91,7.69,75.79-9.39-39.36-18.8-78.68A314.07,314.07,0,0,0,195,46.29a90.16,90.16,0,0,1-3.44-26.86c-11,28.86-6.14,61.61,3.91,90.83s25.06,56.47,34.83,85.78c-8.69-16.55-17.44-33.17-28.8-47.93s-25.6-27.72-42.67-34.79c24.3,31.19,48.88,62.86,64.66,99.29a411.33,411.33,0,0,0-73.92-85.1A243.9,243.9,0,0,0,167,161.34c20.14,24.66,48,47.32,57.14,77.7,4.51,15,4.07,31,3.12,46.59-2.52,41.4-9.31,82.11-18,122.57,8.16-3.48,18.69.21,24.28,7.5,6.26,8.16,7.32,19.39,5.71,29.62-1,6.58-3.31,13.33-8.16,17.84-5.73,5.29-14.34,6.84-19.33,12.86-5.25,6.37-4.95,15.8-9.06,23-3.65,6.4-10.42,10.11-17.69,11.43-4.81,19.56-9.54,39.14-13.93,58.77a30.71,30.71,0,0,1,2.91-1.88c12.15-7,29.94-5.91,37.54,6,2.65,4.16,3.88,9.22,6.95,13.07,6.54,8.09,19.06,8.26,26.59,15.4a19.75,19.75,0,0,1,3.05,23.79c-3.79,6.16-10.61,9.52-16.57,13.54s-11.73,10.06-11.31,17.33c.57,10.34,12.88,15.44,23.09,15.54s21.23-2.14,29.94,3.26c8.92,5.53,12,17.33,11.76,28-.35,13.89-6.31,28.75-18.6,34.86-5.82,2.89-12.47,3.57-18.48,6s-11.87,7.54-11.85,14.13c.05,16.12,30.77,16.81,31.17,32.93.11,5.06-3.12,9.43-5.34,13.94s-3.1,10.79.74,14c5.61,4.7,17.14-.59,19.77,6.3,2.73,7.15-10.05,10.72-11.62,18.19-.94,4.42,2.36,8.47,4.14,12.6a19.79,19.79,0,0,1-3.86,21c-5,5.17-12.64,7.12-17.56,12.39-8,8.58-4.57,25,6.15,29.53,3,1.29,6.58,1.83,8.8,4.3a12.23,12.23,0,0,1,2.52,6.3,40.76,40.76,0,0,1,.47,8.76c2.81,2.6,5.6,5.21,9.1,6.59,4.38,1.74,9.29,1.31,13.84,2.51,10.2,2.68,16.59,12.75,21.38,22.29,8.58,17.07,15.39,36.91,9.54,55.13-3.76,11.74-12.52,21.68-14.35,33.89-.85,5.65-.15,11.43-.65,17.12-2.09,23.68-25.35,40.93-48.59,43.36a38.44,38.44,0,0,1-12.16-.36c-15.08-3.26-24.23-18.45-31.6-32.23q-4.17-7.82-8.35-15.63c-3.93-7.36-7.88-14.74-10.85-22.55a116.39,116.39,0,0,1-6.35-25.63c-2.88-21-.74-43.38,9.77-61.72a66.19,66.19,0,0,1,7.6-10.58,7.39,7.39,0,0,0-1.26-1c-5.08-3.2-11.65,1.88-13.86,7.52s-2.34,12.16-5.64,17.24c-5.45,8.36-17.9,9.23-26.61,4.49S148.06,965.2,143,956.57l-.69-1.2c.15,2.67.31,5.31.48,7.94a102.32,102.32,0,0,0-49.29-33.2c21.07,11.73,37.77,25.81,49.86,41.86,1.21,17.43,2.65,33.72,4.23,48.68a30.41,30.41,0,0,0-3.66-.16c-25,.19-104.11-19.79-113.42-31.74,25.22,8.56,76.07,23.39,102.64,22.89-25.11-3.29-69.89-15.22-92-27.8C27.34,976,9.48,957.65,5.21,942.72a21.2,21.2,0,0,0-5.06,11C-1,963.18,5,971.92,11.73,978.53c18.2,18,42.64,27.81,67.12,34.51A344.24,344.24,0,0,0,148,1024.5c3.56,32.76,7.76,58.86,11.49,76.2a31.58,31.58,0,0,1,8.69-7.88c9.82-5.87,24.05-4.58,30.88,4.7,6.1,8.28,6.4,21.75,15.8,25.75,8.57,3.64,20.12-3.39,27,2.93,5.94,5.43,2.91,16.15,7.74,22.6,4.41,5.92,13.09,5.64,19.77,8.62,10.72,4.77,15.62,18.69,12.5,30.16s-12.71,20.27-23.47,24.87c-10.54,4.54-25.11,9.13-24.6,20.74.46,11.19,16.05,17.47,15.59,28.66-.28,6.69-6.19,11.28-11.55,15.44a100.62,100.62,0,0,0,24.21,17.63c5.45,2.8,11.43,5.06,17.53,4.51,8.92-.79,33.26-10.1,39.48-16.66,31.64-33.27,37.81-72,49.8-116.65.77-2.86,1.47-5.73,2.15-8.6a5.49,5.49,0,0,0,1,.27c6.92,1.23,14.53-9.54,17-24s-1.12-27.26-8-28.48a6.76,6.76,0,0,0-1.62,0c2-20.47,2.87-41.12,3.73-61.67l.78-18.49c3.07-.9,6.14-1.85,9.16-2.81l30.56-9.68c12.59-4,25.25-8,37.05-14a122.77,122.77,0,0,0,32.25-23.81c8-8.25,15.1-18.48,17.23-29.62C504,952.86,483.37,965.27,474.75,969.92Zm-95.16,146.92c4.13.75,6.09,9.24,4.4,19s-6.43,17-10.55,16.28-6.1-9.24-4.4-19S375.46,1116.1,379.59,1116.84Z"/><path class="cls-2" d="M507.57,925.45a16.63,16.63,0,0,0-1.78-2.43,18.13,18.13,0,0,0-6.26-4.44c-31.87,26.87-56.82,35.92-89.39,48.71C440.59,960.24,479.6,943.64,507.57,925.45Z"/><path class="cls-1" d="M249.44,1261.85c.46-11.19-15.13-17.47-15.59-28.66-.51-11.61,14.06-16.2,24.6-20.74,10.76-4.6,20.35-13.39,23.47-24.87s-1.78-25.39-12.5-30.16c-6.68-3-15.36-2.7-19.77-8.62-4.83-6.45-1.8-17.17-7.74-22.6-6.91-6.32-18.46.71-27-2.93-9.4-4-9.7-17.47-15.8-25.75-6.83-9.28-21.06-10.57-30.88-4.7a31.58,31.58,0,0,0-8.69,7.88c.85,3.91,1.67,7.38,2.45,10.37,6.59-2.12,15.73,7.13,20.51,20.86s3.39,27.06-3.22,29.44a6.71,6.71,0,0,1-1.65.33,560.08,560.08,0,0,0,22.8,59c9.54,20.61,21.48,41,37.49,56.58C243.25,1273.13,249.16,1268.54,249.44,1261.85Z"/><path class="cls-3" d="M333.2,581.08c-9.59,5.64-21.83,1.64-32.6,4.25-10.48,2.54-18.66,11.29-23.33,21.16-3.88,8.2-5.59,18.5-.57,26,2.12,3.19,5.31,5.66,6.95,9.14,2,4.23,1.36,9.22.69,13.85-1.36,9.45-2.75,19-1.64,28.49s5.06,19,12.55,24.75c7.83,6,19.08,7.74,24.5,16.06,4.48,6.89,3.38,15.87,3.4,24.12s2.54,18,10.21,20.73c2.79,1,5.87.85,8.75,1.53,9.13,2.16,14.39,11.75,17.63,20.69s6,18.87,13.56,24.49a22.27,22.27,0,0,0,16.51,3.81q-.37-10.83-1.17-21.63c-2.45-33.54-8-66.76-14-99.86q-13.12-73.28-28.27-146.1c-2.73.7-5.5,1.29-7.86,2.82C330.82,560.44,331.56,571.93,333.2,581.08Z"/><path class="cls-4" d="M202.73,499c4.11-7.19,3.81-16.62,9.06-23,5-6,13.6-7.57,19.33-12.86,4.85-4.51,7.12-11.26,8.16-17.84,1.61-10.23.55-21.46-5.71-29.62-5.59-7.29-16.12-11-24.28-7.5C202,442.4,193.42,476.4,185,510.44,192.31,509.12,199.08,505.41,202.73,499Z"/><path class="cls-4" d="M277.85,375.74c-6.21,4.11-7.69,12.71-7.44,20.26.12,3.41.6,7.1,2.94,9.54,2,2.14,5.1,2.9,7.44,4.66,4.38,3.31,5.52,9.52,5.4,15.07s-1.15,11.23.3,16.62c3.1,11.47,16.31,17,28,17.06a38.38,38.38,0,0,0,11.48-1.5q-9.81-44.46-20.12-88.88a23.56,23.56,0,0,1-8.71,3.59C290.67,373.36,283.42,372.09,277.85,375.74Z"/><path class="cls-5" d="M257.13,969.19c-1.8,5.69,5.66,9.41,9,14.3,4.21,6.09,1.14,15.51-5.33,19S246,1004,240.48,999.07s-8.27-12.36-9.1-19.77c-.37-3.15-.84-7-3.72-8.2-2.34-1-5,.42-7.49,0-7.93-1.15-4.8-15-10.33-20.59a66.19,66.19,0,0,0-7.6,10.58c-10.51,18.34-12.65,40.69-9.77,61.72a116.39,116.39,0,0,0,6.35,25.63c3,7.81,6.92,15.19,10.85,22.55q4.19,7.82,8.35,15.63c7.37,13.78,16.52,29,31.6,32.23a38.44,38.44,0,0,0,12.16.36c23.24-2.43,46.5-19.68,48.59-43.36.5-5.69-.2-11.47.65-17.12,1.83-12.21,10.59-22.15,14.35-33.89,5.85-18.22-1-38.06-9.54-55.13-4.79-9.54-11.18-19.61-21.38-22.29-4.55-1.2-9.46-.77-13.84-2.51-3.5-1.38-6.29-4-9.1-6.59a41.83,41.83,0,0,1-11.19,26.45C259.07,966.14,257.69,967.45,257.13,969.19Z"/><path class="cls-4" d="M223.48,212.61c-15.78-36.43-40.36-68.1-64.66-99.29,17.07,7.07,31.3,20,42.67,34.79s20.11,31.38,28.8,47.93c-9.77-29.31-24.76-56.58-34.83-85.78s-14.88-62-3.91-90.83A90.16,90.16,0,0,0,195,46.29a314.07,314.07,0,0,1,1.51-32.88q9.42,39.32,18.8,78.68-3.86-37.91-7.69-75.79a585,585,0,0,1,23.07,74.42c2,8.26,3.74,16.6,6.75,24.5s7.09,15.09,10.69,22.59c1.92,4,3.68,8,5.32,12.11q-5.9-24-11.78-48c-7-28.4-15.13-72.38-34.24-97.42A11.3,11.3,0,0,0,188,6.73C173.88,39,175.08,89.41,192.5,116a80.51,80.51,0,0,0-33.75-10.25c-8.11-.61-14.48,6.94-13,15.07,2.72,14.86,11,27.93,21.23,40.48a243.9,243.9,0,0,1-17.42-33.83A411.33,411.33,0,0,1,223.48,212.61Z"/><path class="cls-2" d="M182.47,1131.93c-4.78-13.73-13.92-23-20.51-20.86l-.22,0c-6.61,2.39-8.05,15.57-3.22,29.45,4.44,12.76,12.65,21.64,19.08,21.13a6.71,6.71,0,0,0,1.65-.33C185.86,1159,187.3,1145.8,182.47,1131.93Zm-5.67,23.24c-4,1.37-9.72-5.11-12.84-14.48s-2.43-18.07,1.54-19.43,9.72,5.11,12.84,14.47S180.77,1153.8,176.8,1155.17Z"/><path class="cls-1" d="M178.34,1135.73c-3.12-9.36-8.87-15.84-12.84-14.47s-4.66,10.07-1.54,19.43,8.87,15.85,12.84,14.48S181.46,1145.1,178.34,1135.73Z"/><path class="cls-1" d="M369,1133.12c-1.7,9.74.27,18.24,4.4,19s8.85-6.54,10.55-16.28-.27-18.23-4.4-19S370.74,1123.38,369,1133.12Z"/></g></g></svg>